STARTFONT 2.1
COMMENT DesignerURL: www.linotype.com
COMMENT VendorURL: www.linotype.com
FONT -Linotype Library GmbH-HelveticaNeue LT 57 Cn-Normal-R-medium-Regular-11-110-72-72-P-46--
SIZE 11 72 72
FONTBOUNDINGBOX 15 11 -2 -2
STARTPROPERTIES 519
FAMILY_NAME "HelveticaNeue LT 57 Cn"
DEFAULT_CHAR -1
FOUNDRY "Linotype Library GmbH"
COPYRIGHT "Copyright (c) 2005,Linotype Library GmbH, www.linotype.com. All rights reserved. This software may not be reproduced, used, displayed, modified, disclosed written approval of Linotype Library GmbH."
NOTICE "Copyright (c) 2005,Linotype Library GmbH, www.linotype.com. All rights reserved. The digitally encoded machine readable outline data for producing the Typefaces provided as part of your laser printer is copyrighted (c)Heidelberger Druckmaschinen AG. All rights reser¿ÿép"
CODEPAGE "MacOS Roman"
TRADEMARK "Neue Helvetica is a Trademark of Heidelberger Druckmaschinen AG which may be registered in certain jurisdictions, exclusively licensed through Linotype Library GmbH, a wholly owned subsidiary of Heidelberger Druckmaschinen AG."
CREATION_YEAR 2005
PCL_CHARSET " 9U"
WEIGHT_NAME "Normal"
SLANT "R"
SETWIDTH_NAME "medium"
ADD_STYLE_NAME "Regular"
SPACING "P"
FACE_NAME "Helvetica LT 57 Condensed"
VERSION "Version 7.01; 2004"
HI_VERSION 7
LO_VERSION 1
UNIQUE_FONT_ID "LinotypeLibraryGmbH: Helvetica LT 57 Condensed: 2005"
VENDOR "LINO"
MENU_NAME "HelveticaNeue LT 57 Cn"
FONT_NAME "HelveticaNeueLT-Condensed"
FONTNAME_REGISTRY "-"
BREAK_CHAR 32
PIXEL_SIZE 11
POINT_SIZE 110
FONT_ASCENT 9
FONT_DESCENT 2
RESOLUTION_X 72
RESOLUTION_Y 72
AVERAGE_WIDTH 46
UNDERLINE_POSITION -1
UNDERLINE_THICKNESS 1
X_HEIGHT 6
CAP_HEIGHT 7
KERNING_PAIR "U002f U2019 0"
KERNING_PAIR "U002f U201d 0"
KERNING_PAIR "U0043 U0051 0"
KERNING_PAIR "U0043 U0054 -1"
KERNING_PAIR "U0043 U0056 0"
KERNING_PAIR "U0043 U0057 0"
KERNING_PAIR "U0043 U0059 -1"
KERNING_PAIR "U0043 U0070 0"
KERNING_PAIR "U0043 U2019 -1"
KERNING_PAIR "U0043 U201d -1"
KERNING_PAIR "U0046 U0059 0"

STARTCHAR .notdef
ENCODING 0
SWIDTH 500 0
DWIDTH 5 0
BBX 5 9 0 0
BITMAP
78
88
88
88
88
88
88
88
78
ENDCHAR
STARTCHAR space
ENCODING 32
SWIDTH 240 0
DWIDTH 2 0
BBX 0 0 0 0
BITMAP
ENDCHAR
STARTCHAR caron
ENCODING 711
SWIDTH 364 0
DWIDTH 4 0
BBX 3 2 0 7
BITMAP
A0
40
ENDCHAR
STARTCHAR dotlessi
ENCODING 305
SWIDTH 182 0
DWIDTH 2 0
BBX 1 5 0 0
BITMAP
80
80
80
80
80
ENDCHAR
STARTCHAR dotaccent
ENCODING 729
SWIDTH 182 0
DWIDTH 2 0
BBX 1 1 0 8
BITMAP
80
ENDCHAR
STARTCHAR hungarumlaut
ENCODING 733
SWIDTH 455 0
DWIDTH 5 0
BBX 4 1 0 8
BITMAP
90
ENDCHAR
STARTCHAR ring
ENCODING 730
SWIDTH 455 0
DWIDTH 5 0
BBX 4 2 0 7
BITMAP
60
90
ENDCHAR
STARTCHAR ogonek
ENCODING 731
SWIDTH 204 0
DWIDTH 2 0
BBX 2 2 0 -2
BITMAP
80
C0
ENDCHAR
STARTCHAR breve
ENCODING 728
SWIDTH 455 0
DWIDTH 5 0
BBX 4 2 0 7
BITMAP
90
60
ENDCHAR
STARTCHAR exclam
ENCODING 33
SWIDTH 182 0
DWIDTH 2 0
BBX 1 7 0 0
BITMAP
80
80
80
80
80
00
80
ENDCHAR
STARTCHAR quotedbl
ENCODING 34
SWIDTH 364 0
DWIDTH 4 0
BBX 3 2 0 5
BITMAP
A0
A0
ENDCHAR
STARTCHAR numbersign
ENCODING 35
SWIDTH 545 0
DWIDTH 6 0
BBX 5 7 0 0
BITMAP
50
50
F8
50
F8
50
50
ENDCHAR
STARTCHAR dollar
ENCODING 36
SWIDTH 545 0
DWIDTH 6 0
BBX 5 9 0 -1
BITMAP
20
70
A8
A0
70
28
A8
70
20
ENDCHAR
STARTCHAR percent
ENCODING 37
SWIDTH 1000 0
DWIDTH 11 0
BBX 9 7 0 0
BITMAP
6100
9200
9400
6B00
1480
2480
4300
ENDCHAR
STARTCHAR ampersand
ENCODING 38
SWIDTH 636 0
DWIDTH 7 0
BBX 6 7 0 0
BITMAP
60
90
90
64
94
88
74
ENDCHAR
STARTCHAR quotesingle
ENCODING 39
SWIDTH 182 0
DWIDTH 2 0
BBX 1 3 0 4
BITMAP
80
80
80
ENDCHAR
STARTCHAR parenleft
ENCODING 40
SWIDTH 273 0
DWIDTH 3 0
BBX 2 8 0 -1
BITMAP
40
40
80
80
80
80
40
40
ENDCHAR
STARTCHAR parenright
ENCODING 41
SWIDTH 273 0
DWIDTH 3 0
BBX 2 8 0 -1
BITMAP
80
80
40
40
40
40
80
80
ENDCHAR
STARTCHAR asterisk
ENCODING 42
SWIDTH 364 0
DWIDTH 4 0
BBX 3 3 0 5
BITMAP
A0
40
A0
ENDCHAR
STARTCHAR plus
ENCODING 43
SWIDTH 600 0
DWIDTH 6 0
BBX 5 5 0 1
BITMAP
20
20
F8
20
20
ENDCHAR
STARTCHAR comma
ENCODING 44
SWIDTH 273 0
DWIDTH 3 0
BBX 2 3 0 -2
BITMAP
40
40
80
ENDCHAR
STARTCHAR period
ENCODING 46
SWIDTH 240 0
DWIDTH 2 0
BBX 1 1 0 0
BITMAP
80
ENDCHAR
STARTCHAR slash
ENCODING 47
SWIDTH 364 0
DWIDTH 4 0
BBX 3 7 0 0
BITMAP
20
20
40
40
40
80
80
ENDCHAR
STARTCHAR zero
ENCODING 48
SWIDTH 545 0
DWIDTH 6 0
BBX 5 7 0 0
BITMAP
70
88
88
88
88
88
70
ENDCHAR
STARTCHAR one
ENCODING 49
SWIDTH 455 0
DWIDTH 5 0
BBX 2 7 1 0
BITMAP
C0
40
40
40
40
40
40
ENDCHAR
STARTCHAR two
ENCODING 50
SWIDTH 545 0
DWIDTH 6 0
BBX 5 7 0 0
BITMAP
70
88
08
30
40
80
F8
ENDCHAR
STARTCHAR three
ENCODING 51
SWIDTH 545 0
DWIDTH 6 0
BBX 5 7 0 0
BITMAP
70
88
08
30
08
88
70
ENDCHAR
STARTCHAR four
ENCODING 52
SWIDTH 545 0
DWIDTH 6 0
BBX 5 7 0 0
BITMAP
10
30
50
90
F8
10
10
ENDCHAR
STARTCHAR five
ENCODING 53
SWIDTH 545 0
DWIDTH 6 0
BBX 5 7 0 0
BITMAP
F8
80
80
70
08
88
70
ENDCHAR
STARTCHAR six
ENCODING 54
SWIDTH 545 0
DWIDTH 6 0
BBX 5 7 0 0
BITMAP
70
88
80
F0
88
88
70
ENDCHAR
STARTCHAR seven
ENCODING 55
SWIDTH 480 0
DWIDTH 5 0
BBX 4 7 0 0
BITMAP
F0
10
20
20
40
40
40
ENDCHAR
STARTCHAR eight
ENCODING 56
SWIDTH 545 0
DWIDTH 6 0
BBX 5 7 0 0
BITMAP
70
88
88
70
88
88
70
ENDCHAR
STARTCHAR nine
ENCODING 57
SWIDTH 545 0
DWIDTH 6 0
BBX 5 7 0 0
BITMAP
70
88
88
78
08
88
70
ENDCHAR
STARTCHAR colon
ENCODING 58
SWIDTH 182 0
DWIDTH 2 0
BBX 1 4 0 0
BITMAP
80
00
00
80
ENDCHAR
STARTCHAR semicolon
ENCODING 59
SWIDTH 182 0
DWIDTH 2 0
BBX 1 5 0 -1
BITMAP
80
00
00
80
80
ENDCHAR
STARTCHAR less
ENCODING 60
SWIDTH 455 0
DWIDTH 5 0
BBX 4 7 0 0
BITMAP
10
20
40
80
40
20
10
ENDCHAR
STARTCHAR equal
ENCODING 61
SWIDTH 364 0
DWIDTH 4 0
BBX 3 3 0 2
BITMAP
E0
00
E0
ENDCHAR
STARTCHAR greater
ENCODING 62
SWIDTH 455 0
DWIDTH 5 0
BBX 4 7 0 0
BITMAP
80
40
20
10
20
40
80
ENDCHAR
STARTCHAR question
ENCODING 63
SWIDTH 545 0
DWIDTH 6 0
BBX 5 7 0 0
BITMAP
70
88
08
10
20
00
20
ENDCHAR
STARTCHAR at
ENCODING 64
SWIDTH 909 0
DWIDTH 10 0
BBX 9 10 0 -2
BITMAP
3E00
4100
9880
A480
8C80
9480
A500
9E00
4000
3800
ENDCHAR
STARTCHAR A
ENCODING 65
SWIDTH 455 0
DWIDTH 5 0
BBX 4 7 0 0
BITMAP
60
90
90
90
F0
90
90
ENDCHAR
STARTCHAR B
ENCODING 66
SWIDTH 519 0
DWIDTH 5 0
BBX 4 7 0 0
BITMAP
E0
90
90
E0
90
90
E0
ENDCHAR
STARTCHAR C
ENCODING 67
SWIDTH 519 0
DWIDTH 5 0
BBX 4 7 0 0
BITMAP
60
90
80
80
80
90
60
ENDCHAR
STARTCHAR D
ENCODING 68
SWIDTH 455 0
DWIDTH 5 0
BBX 4 7 0 0
BITMAP
E0
90
90
90
90
90
E0
ENDCHAR
STARTCHAR E
ENCODING 69
SWIDTH 463 0
DWIDTH 5 0
BBX 4 7 0 0
BITMAP
F0
80
80
F0
80
80
F0
ENDCHAR
STARTCHAR F
ENCODING 70
SWIDTH 455 0
DWIDTH 5 0
BBX 4 7 0 0
BITMAP
F0
80
80
E0
80
80
80
ENDCHAR
STARTCHAR G
ENCODING 71
SWIDTH 537 0
DWIDTH 5 0
BBX 4 7 0 0
BITMAP
60
90
80
B0
90
90
60
ENDCHAR
STARTCHAR H
ENCODING 72
SWIDTH 537 0
DWIDTH 5 0
BBX 4 7 0 0
BITMAP
90
90
90
F0
90
90
90
ENDCHAR
STARTCHAR I
ENCODING 73
SWIDTH 204 0
DWIDTH 2 0
BBX 1 7 0 0
BITMAP
80
80
80
80
80
80
80
ENDCHAR
STARTCHAR J
ENCODING 74
SWIDTH 455 0
DWIDTH 5 0
BBX 4 7 0 0
BITMAP
10
10
10
10
10
90
60
ENDCHAR
STARTCHAR K
ENCODING 75
SWIDTH 500 0
DWIDTH 5 0
BBX 4 7 0 0
BITMAP
90
90
A0
C0
A0
90
90
ENDCHAR
STARTCHAR L
ENCODING 76
SWIDTH 455 0
DWIDTH 5 0
BBX 4 7 0 0
BITMAP
80
80
80
80
80
80
F0
ENDCHAR
STARTCHAR M
ENCODING 77
SWIDTH 545 0
DWIDTH 6 0
BBX 5 7 0 0
BITMAP
88
D8
A8
A8
A8
A8
A8
ENDCHAR
STARTCHAR N
ENCODING 78
SWIDTH 455 0
DWIDTH 5 0
BBX 4 7 0 0
BITMAP
90
D0
B0
90
90
90
90
ENDCHAR
STARTCHAR O
ENCODING 79
SWIDTH 455 0
DWIDTH 5 0
BBX 4 7 0 0
BITMAP
60
90
90
90
90
90
60
ENDCHAR
STARTCHAR P
ENCODING 80
SWIDTH 455 0
DWIDTH 5 0
BBX 4 7 0 0
BITMAP
E0
90
90
E0
80
80
80
ENDCHAR
STARTCHAR Q
ENCODING 81
SWIDTH 455 0
DWIDTH 5 0
BBX 4 8 0 -1
BITMAP
60
90
90
90
90
90
60
10
ENDCHAR
STARTCHAR R
ENCODING 82
SWIDTH 455 0
DWIDTH 5 0
BBX 4 7 0 0
BITMAP
E0
90
90
E0
90
90
90
ENDCHAR
STARTCHAR S
ENCODING 83
SWIDTH 545 0
DWIDTH 6 0
BBX 5 7 0 0
BITMAP
70
88
80
70
08
88
70
ENDCHAR
STARTCHAR T
ENCODING 84
SWIDTH 545 0
DWIDTH 6 0
BBX 5 7 0 0
BITMAP
F8
20
20
20
20
20
20
ENDCHAR
STARTCHAR U
ENCODING 85
SWIDTH 455 0
DWIDTH 5 0
BBX 4 7 0 0
BITMAP
90
90
90
90
90
90
F0
ENDCHAR
STARTCHAR V
ENCODING 86
SWIDTH 545 0
DWIDTH 6 0
BBX 5 7 0 0
BITMAP
88
88
50
50
50
50
20
ENDCHAR
STARTCHAR W
ENCODING 87
SWIDTH 727 0
DWIDTH 8 0
BBX 7 7 0 0
BITMAP
92
92
92
92
92
AA
44
ENDCHAR
STARTCHAR X
ENCODING 88
SWIDTH 545 0
DWIDTH 6 0
BBX 5 7 0 0
BITMAP
88
88
50
20
50
88
88
ENDCHAR
STARTCHAR Y
ENCODING 89
SWIDTH 545 0
DWIDTH 6 0
BBX 5 7 0 0
BITMAP
88
88
50
20
20
20
20
ENDCHAR
STARTCHAR Z
ENCODING 90
SWIDTH 545 0
DWIDTH 6 0
BBX 5 7 0 0
BITMAP
F8
08
10
20
40
80
F8
ENDCHAR
STARTCHAR bracketleft
ENCODING 91
SWIDTH 273 0
DWIDTH 3 0
BBX 2 10 0 -2
BITMAP
C0
80
80
80
80
80
80
80
80
C0
ENDCHAR
STARTCHAR backslash
ENCODING 92
SWIDTH 364 0
DWIDTH 4 0
BBX 3 8 0 0
BITMAP
80
80
80
40
40
20
20
20
ENDCHAR
STARTCHAR bracketright
ENCODING 93
SWIDTH 273 0
DWIDTH 3 0
BBX 2 10 0 -2
BITMAP
C0
40
40
40
40
40
40
40
40
C0
ENDCHAR
STARTCHAR asciicircum
ENCODING 94
SWIDTH 727 0
DWIDTH 8 0
BBX 7 4 0 3
BITMAP
10
28
44
82
ENDCHAR
STARTCHAR underscore
ENCODING 95
SWIDTH 500 0
DWIDTH 5 0
BBX 4 1 0 -2
BITMAP
F0
ENDCHAR
STARTCHAR grave
ENCODING 96
SWIDTH 273 0
DWIDTH 3 0
BBX 2 2 0 7
BITMAP
80
40
ENDCHAR
STARTCHAR a
ENCODING 97
SWIDTH 455 0
DWIDTH 5 0
BBX 4 6 0 0
BITMAP
E0
10
70
90
90
70
ENDCHAR
STARTCHAR b
ENCODING 98
SWIDTH 455 0
DWIDTH 5 0
BBX 4 7 0 0
BITMAP
80
E0
90
90
90
90
E0
ENDCHAR
STARTCHAR c
ENCODING 99
SWIDTH 455 0
DWIDTH 5 0
BBX 4 6 0 0
BITMAP
60
90
80
80
90
60
ENDCHAR
STARTCHAR d
ENCODING 100
SWIDTH 463 0
DWIDTH 5 0
BBX 4 7 0 0
BITMAP
10
70
90
90
90
90
70
ENDCHAR
STARTCHAR e
ENCODING 101
SWIDTH 455 0
DWIDTH 5 0
BBX 4 6 0 0
BITMAP
60
90
F0
80
90
60
ENDCHAR
STARTCHAR f
ENCODING 102
SWIDTH 364 0
DWIDTH 4 0
BBX 3 7 0 0
BITMAP
20
40
E0
40
40
40
40
ENDCHAR
STARTCHAR g
ENCODING 103
SWIDTH 463 0
DWIDTH 5 0
BBX 4 8 0 -2
BITMAP
60
90
90
90
90
70
10
60
ENDCHAR
STARTCHAR h
ENCODING 104
SWIDTH 455 0
DWIDTH 5 0
BBX 4 7 0 0
BITMAP
80
E0
90
90
90
90
90
ENDCHAR
STARTCHAR i
ENCODING 105
SWIDTH 182 0
DWIDTH 2 0
BBX 1 7 0 0
BITMAP
80
00
80
80
80
80
80
ENDCHAR
STARTCHAR j
ENCODING 106
SWIDTH 273 0
DWIDTH 3 0
BBX 2 9 0 -2
BITMAP
40
00
40
40
40
40
40
40
80
ENDCHAR
STARTCHAR k
ENCODING 107
SWIDTH 455 0
DWIDTH 5 0
BBX 4 7 0 0
BITMAP
80
90
A0
C0
A0
90
90
ENDCHAR
STARTCHAR l
ENCODING 108
SWIDTH 273 0
DWIDTH 3 0
BBX 2 7 0 0
BITMAP
80
80
80
80
80
80
C0
ENDCHAR
STARTCHAR m
ENCODING 109
SWIDTH 545 0
DWIDTH 6 0
BBX 5 6 0 0
BITMAP
D0
A8
A8
A8
A8
A8
ENDCHAR
STARTCHAR n
ENCODING 110
SWIDTH 455 0
DWIDTH 5 0
BBX 4 6 0 0
BITMAP
E0
90
90
90
90
90
ENDCHAR
STARTCHAR o
ENCODING 111
SWIDTH 455 0
DWIDTH 5 0
BBX 4 6 0 0
BITMAP
60
90
90
90
90
60
ENDCHAR
STARTCHAR p
ENCODING 112
SWIDTH 455 0
DWIDTH 5 0
BBX 4 8 0 -2
BITMAP
E0
90
90
90
90
E0
80
80
ENDCHAR
STARTCHAR q
ENCODING 113
SWIDTH 463 0
DWIDTH 5 0
BBX 4 8 0 -2
BITMAP
60
90
90
90
90
70
10
10
ENDCHAR
STARTCHAR r
ENCODING 114
SWIDTH 273 0
DWIDTH 3 0
BBX 2 6 0 0
BITMAP
C0
80
80
80
80
80
ENDCHAR
STARTCHAR s
ENCODING 115
SWIDTH 455 0
DWIDTH 5 0
BBX 4 6 0 0
BITMAP
70
80
E0
10
10
E0
ENDCHAR
STARTCHAR t
ENCODING 116
SWIDTH 364 0
DWIDTH 4 0
BBX 3 7 0 0
BITMAP
40
40
E0
40
40
40
40
ENDCHAR
STARTCHAR u
ENCODING 117
SWIDTH 455 0
DWIDTH 5 0
BBX 4 6 0 0
BITMAP
90
90
90
90
90
60
ENDCHAR
STARTCHAR v
ENCODING 118
SWIDTH 455 0
DWIDTH 5 0
BBX 4 6 0 0
BITMAP
90
90
90
90
50
20
ENDCHAR
STARTCHAR w
ENCODING 119
SWIDTH 545 0
DWIDTH 6 0
BBX 5 6 0 0
BITMAP
A8
A8
A8
A8
A8
50
ENDCHAR
STARTCHAR x
ENCODING 120
SWIDTH 545 0
DWIDTH 6 0
BBX 5 6 0 0
BITMAP
88
50
20
20
50
88
ENDCHAR
STARTCHAR y
ENCODING 121
SWIDTH 455 0
DWIDTH 5 0
BBX 4 8 0 -2
BITMAP
90
90
90
90
90
70
10
60
ENDCHAR
STARTCHAR z
ENCODING 122
SWIDTH 455 0
DWIDTH 5 0
BBX 4 6 0 0
BITMAP
F0
10
20
40
80
F0
ENDCHAR
STARTCHAR braceleft
ENCODING 123
SWIDTH 364 0
DWIDTH 4 0
BBX 3 10 0 -2
BITMAP
60
40
40
40
80
80
40
40
40
60
ENDCHAR
STARTCHAR bar
ENCODING 124
SWIDTH 182 0
DWIDTH 2 0
BBX 1 7 0 0
BITMAP
80
80
80
80
80
80
80
ENDCHAR
STARTCHAR braceright
ENCODING 125
SWIDTH 364 0
DWIDTH 4 0
BBX 3 10 0 -2
BITMAP
C0
40
40
40
20
20
40
40
40
C0
ENDCHAR
STARTCHAR asciitilde
ENCODING 126
SWIDTH 455 0
DWIDTH 5 0
BBX 4 2 0 2
BITMAP
50
A0
ENDCHAR
STARTCHAR quotesinglbase
ENCODING 8218
SWIDTH 182 0
DWIDTH 2 0
BBX 1 3 0 -2
BITMAP
80
80
80
ENDCHAR
STARTCHAR florin
ENCODING 402
SWIDTH 545 0
DWIDTH 6 0
BBX 5 10 0 -2
BITMAP
18
10
10
78
20
20
20
20
20
C0
ENDCHAR
STARTCHAR quotedblbase
ENCODING 8222
SWIDTH 364 0
DWIDTH 4 0
BBX 3 3 0 -2
BITMAP
A0
A0
A0
ENDCHAR
STARTCHAR ellipsis
ENCODING 8230
SWIDTH 1000 0
DWIDTH 11 0
BBX 9 1 1 0
BITMAP
8880
ENDCHAR
STARTCHAR dagger
ENCODING 8224
SWIDTH 545 0
DWIDTH 6 0
BBX 5 8 0 -1
BITMAP
20
20
F8
20
20
20
20
20
ENDCHAR
STARTCHAR daggerdbl
ENCODING 8225
SWIDTH 545 0
DWIDTH 6 0
BBX 5 9 0 -1
BITMAP
20
20
F8
20
20
70
20
20
20
ENDCHAR
STARTCHAR circumflex
ENCODING 710
SWIDTH 364 0
DWIDTH 4 0
BBX 3 2 0 7
BITMAP
40
A0
ENDCHAR
STARTCHAR perthousand
ENCODING 8240
SWIDTH 1273 0
DWIDTH 14 0
BBX 13 7 0 0
BITMAP
6100
9200
9400
6B30
14C8
24C8
4330
ENDCHAR
STARTCHAR guilsinglleft
ENCODING 8249
SWIDTH 273 0
DWIDTH 3 0
BBX 2 4 0 1
BITMAP
40
80
80
40
ENDCHAR
STARTCHAR OE
ENCODING 338
SWIDTH 796 0
DWIDTH 8 0
BBX 7 7 0 0
BITMAP
6E
90
90
9C
90
90
6E
ENDCHAR
STARTCHAR quoteleft
ENCODING 8216
SWIDTH 240 0
DWIDTH 2 0
BBX 1 3 0 5
BITMAP
80
80
80
ENDCHAR
STARTCHAR quoteright
ENCODING 8217
SWIDTH 240 0
DWIDTH 2 0
BBX 1 3 0 5
BITMAP
80
80
80
ENDCHAR
STARTCHAR quotedblleft
ENCODING 8220
SWIDTH 407 0
DWIDTH 4 0
BBX 3 3 0 5
BITMAP
A0
A0
20
ENDCHAR
STARTCHAR quotedblright
ENCODING 8221
SWIDTH 407 0
DWIDTH 4 0
BBX 3 3 0 5
BITMAP
A0
A0
80
ENDCHAR
STARTCHAR bullet
ENCODING 8226
SWIDTH 455 0
DWIDTH 5 0
BBX 4 4 0 2
BITMAP
60
F0
F0
60
ENDCHAR
STARTCHAR endash
ENCODING 8211
SWIDTH 636 0
DWIDTH 7 0
BBX 6 1 0 3
BITMAP
FC
ENDCHAR
STARTCHAR emdash
ENCODING 8212
SWIDTH 1091 0
DWIDTH 12 0
BBX 11 1 0 3
BITMAP
FFE0
ENDCHAR
STARTCHAR tilde
ENCODING 732
SWIDTH 455 0
DWIDTH 5 0
BBX 4 2 0 7
BITMAP
50
A0
ENDCHAR
STARTCHAR trademark
ENCODING 8482
SWIDTH 909 0
DWIDTH 10 0
BBX 9 5 0 3
BITMAP
E880
4D80
4F80
4A80
4A80
ENDCHAR
STARTCHAR guilsinglright
ENCODING 8250
SWIDTH 273 0
DWIDTH 3 0
BBX 2 4 0 1
BITMAP
80
40
40
80
ENDCHAR
STARTCHAR oe
ENCODING 339
SWIDTH 727 0
DWIDTH 8 0
BBX 7 6 0 0
BITMAP
6C
92
9E
90
92
6C
ENDCHAR
STARTCHAR Ydieresis
ENCODING 376
SWIDTH 545 0
DWIDTH 6 0
BBX 5 8 0 0
BITMAP
50
88
88
50
20
20
20
20
ENDCHAR
STARTCHAR nbspace
ENCODING 160
SWIDTH 240 0
DWIDTH 2 0
BBX 0 0 0 0
BITMAP
ENDCHAR
STARTCHAR exclamdown
ENCODING 161
SWIDTH 258 0
DWIDTH 2 0
BBX 1 8 0 -2
BITMAP
80
00
80
80
80
80
80
80
ENDCHAR
STARTCHAR cent
ENCODING 162
SWIDTH 545 0
DWIDTH 6 0
BBX 5 8 0 -1
BITMAP
20
70
A8
A0
A0
A8
70
20
ENDCHAR
STARTCHAR sterling
ENCODING 163
SWIDTH 545 0
DWIDTH 6 0
BBX 5 7 0 0
BITMAP
30
48
40
60
20
40
F8
ENDCHAR
STARTCHAR currency
ENCODING 164
SWIDTH 636 0
DWIDTH 7 0
BBX 6 6 0 1
BITMAP
84
78
48
48
78
84
ENDCHAR
STARTCHAR yen
ENCODING 165
SWIDTH 545 0
DWIDTH 6 0
BBX 5 7 0 0
BITMAP
88
88
50
70
20
70
20
ENDCHAR
STARTCHAR section
ENCODING 167
SWIDTH 545 0
DWIDTH 6 0
BBX 5 10 0 -2
BITMAP
30
48
40
70
88
88
70
10
90
60
ENDCHAR
STARTCHAR dieresis
ENCODING 168
SWIDTH 455 0
DWIDTH 5 0
BBX 4 1 0 8
BITMAP
90
ENDCHAR
STARTCHAR copyright
ENCODING 169
SWIDTH 800 0
DWIDTH 8 0
BBX 9 8 0 0
BITMAP
3E00
4100
9C80
9080
9080
9C80
4100
3E00
ENDCHAR
STARTCHAR ordfeminine
ENCODING 170
SWIDTH 364 0
DWIDTH 4 0
BBX 3 4 0 4
BITMAP
E0
20
E0
E0
ENDCHAR
STARTCHAR guillemotleft
ENCODING 171
SWIDTH 455 0
DWIDTH 5 0
BBX 4 4 0 1
BITMAP
50
A0
A0
50
ENDCHAR
STARTCHAR logicalnot
ENCODING 172
SWIDTH 636 0
DWIDTH 7 0
BBX 6 3 0 1
BITMAP
FC
04
04
ENDCHAR
STARTCHAR registered
ENCODING 174
SWIDTH 909 0
DWIDTH 10 0
BBX 9 8 0 0
BITMAP
3E00
4100
9C80
9480
9880
9480
4100
3E00
ENDCHAR
STARTCHAR macron
ENCODING 175
SWIDTH 364 0
DWIDTH 4 0
BBX 4 1 0 8
BITMAP
F0
ENDCHAR
STARTCHAR degree
ENCODING 176
SWIDTH 455 0
DWIDTH 5 0
BBX 4 4 0 4
BITMAP
60
90
90
60
ENDCHAR
STARTCHAR plusminus
ENCODING 177
SWIDTH 364 0
DWIDTH 4 0
BBX 3 5 0 0
BITMAP
40
E0
40
00
E0
ENDCHAR
STARTCHAR acute
ENCODING 180
SWIDTH 273 0
DWIDTH 3 0
BBX 2 2 0 7
BITMAP
40
80
ENDCHAR
STARTCHAR mu
ENCODING 181
SWIDTH 455 0
DWIDTH 5 0
BBX 4 8 0 -2
BITMAP
90
90
90
90
90
E0
80
80
ENDCHAR
STARTCHAR paragraph
ENCODING 182
SWIDTH 556 0
DWIDTH 6 0
BBX 5 9 0 -1
BITMAP
38
68
E8
68
28
28
28
28
28
ENDCHAR
STARTCHAR periodcentered
ENCODING 183
SWIDTH 182 0
DWIDTH 2 0
BBX 1 1 0 3
BITMAP
80
ENDCHAR
STARTCHAR cedilla
ENCODING 184
SWIDTH 273 0
DWIDTH 3 0
BBX 2 2 0 -2
BITMAP
40
C0
ENDCHAR
STARTCHAR ordmasculine
ENCODING 186
SWIDTH 364 0
DWIDTH 4 0
BBX 3 4 0 4
BITMAP
40
A0
A0
40
ENDCHAR
STARTCHAR guillemotright
ENCODING 187
SWIDTH 455 0
DWIDTH 5 0
BBX 4 4 0 1
BITMAP
A0
50
50
A0
ENDCHAR
STARTCHAR questiondown
ENCODING 191
SWIDTH 455 0
DWIDTH 5 0
BBX 4 8 0 -2
BITMAP
20
00
20
20
40
80
90
70
ENDCHAR
STARTCHAR Agrave
ENCODING 192
SWIDTH 500 0
DWIDTH 5 0
BBX 4 9 0 0
BITMAP
40
20
60
90
90
90
F0
90
90
ENDCHAR
STARTCHAR Aacute
ENCODING 193
SWIDTH 455 0
DWIDTH 5 0
BBX 4 9 0 0
BITMAP
20
40
60
90
90
90
F0
90
90
ENDCHAR
STARTCHAR Acircumflex
ENCODING 194
SWIDTH 455 0
DWIDTH 5 0
BBX 4 9 0 0
BITMAP
40
A0
60
90
90
90
F0
90
90
ENDCHAR
STARTCHAR Atilde
ENCODING 195
SWIDTH 500 0
DWIDTH 5 0
BBX 4 9 0 0
BITMAP
50
A0
60
90
90
90
F0
90
90
ENDCHAR
STARTCHAR Adieresis
ENCODING 196
SWIDTH 500 0
DWIDTH 5 0
BBX 4 9 0 0
BITMAP
90
00
60
90
90
90
F0
90
90
ENDCHAR
STARTCHAR Aring
ENCODING 197
SWIDTH 500 0
DWIDTH 5 0
BBX 4 9 0 0
BITMAP
60
90
60
90
90
90
F0
90
90
ENDCHAR
STARTCHAR AE
ENCODING 198
SWIDTH 727 0
DWIDTH 8 0
BBX 7 7 0 0
BITMAP
7E
90
90
9C
F0
90
9E
ENDCHAR
STARTCHAR Ccedilla
ENCODING 199
SWIDTH 455 0
DWIDTH 5 0
BBX 4 9 0 -2
BITMAP
60
90
90
90
90
90
60
20
60
ENDCHAR
STARTCHAR Egrave
ENCODING 200
SWIDTH 463 0
DWIDTH 5 0
BBX 4 9 0 0
BITMAP
40
20
F0
80
80
F0
80
80
F0
ENDCHAR
STARTCHAR Eacute
ENCODING 201
SWIDTH 463 0
DWIDTH 5 0
BBX 4 9 0 0
BITMAP
20
40
F0
80
80
F0
80
80
F0
ENDCHAR
STARTCHAR Ecircumflex
ENCODING 202
SWIDTH 463 0
DWIDTH 5 0
BBX 4 9 0 0
BITMAP
40
A0
F0
80
80
F0
80
80
F0
ENDCHAR
STARTCHAR Edieresis
ENCODING 203
SWIDTH 463 0
DWIDTH 5 0
BBX 4 9 0 0
BITMAP
90
00
F0
80
80
F0
80
80
F0
ENDCHAR
STARTCHAR Igrave
ENCODING 204
SWIDTH 273 0
DWIDTH 3 0
BBX 2 9 0 0
BITMAP
80
40
80
80
80
80
80
80
80
ENDCHAR
STARTCHAR Iacute
ENCODING 205
SWIDTH 273 0
DWIDTH 3 0
BBX 2 9 0 0
BITMAP
40
80
40
40
40
40
40
40
40
ENDCHAR
STARTCHAR Icircumflex
ENCODING 206
SWIDTH 204 0
DWIDTH 2 0
BBX 3 9 -1 0
BITMAP
40
A0
40
40
40
40
40
40
40
ENDCHAR
STARTCHAR Idieresis
ENCODING 207
SWIDTH 204 0
DWIDTH 2 0
BBX 3 8 -1 0
BITMAP
A0
40
40
40
40
40
40
40
ENDCHAR
STARTCHAR Ntilde
ENCODING 209
SWIDTH 455 0
DWIDTH 5 0
BBX 4 9 0 0
BITMAP
50
A0
00
90
D0
B0
90
90
90
ENDCHAR
STARTCHAR Ograve
ENCODING 210
SWIDTH 455 0
DWIDTH 5 0
BBX 4 9 0 0
BITMAP
40
20
60
90
90
90
90
90
60
ENDCHAR
STARTCHAR Oacute
ENCODING 211
SWIDTH 455 0
DWIDTH 5 0
BBX 4 9 0 0
BITMAP
20
40
60
90
90
90
90
90
60
ENDCHAR
STARTCHAR Ocircumflex
ENCODING 212
SWIDTH 455 0
DWIDTH 5 0
BBX 4 9 0 0
BITMAP
40
A0
60
90
90
90
90
90
60
ENDCHAR
STARTCHAR Otilde
ENCODING 213
SWIDTH 455 0
DWIDTH 5 0
BBX 4 9 0 0
BITMAP
50
A0
60
90
90
90
90
90
60
ENDCHAR
STARTCHAR Odieresis
ENCODING 214
SWIDTH 455 0
DWIDTH 5 0
BBX 4 9 0 0
BITMAP
90
00
60
90
90
90
90
90
60
ENDCHAR
STARTCHAR Oslash
ENCODING 216
SWIDTH 545 0
DWIDTH 6 0
BBX 5 9 0 -1
BITMAP
10
70
98
A8
A8
A8
C8
70
40
ENDCHAR
STARTCHAR Ugrave
ENCODING 217
SWIDTH 455 0
DWIDTH 5 0
BBX 4 9 0 0
BITMAP
40
20
90
90
90
90
90
90
F0
ENDCHAR
STARTCHAR Uacute
ENCODING 218
SWIDTH 455 0
DWIDTH 5 0
BBX 4 9 0 0
BITMAP
20
40
90
90
90
90
90
90
F0
ENDCHAR
STARTCHAR Ucircumflex
ENCODING 219
SWIDTH 455 0
DWIDTH 5 0
BBX 4 9 0 0
BITMAP
40
A0
90
90
90
90
90
90
F0
ENDCHAR
STARTCHAR Udieresis
ENCODING 220
SWIDTH 455 0
DWIDTH 5 0
BBX 4 9 0 0
BITMAP
90
00
90
90
90
90
90
90
F0
ENDCHAR
STARTCHAR germandbls
ENCODING 223
SWIDTH 545 0
DWIDTH 6 0
BBX 5 8 0 -1
BITMAP
70
90
90
B0
88
88
88
30
ENDCHAR
STARTCHAR agrave
ENCODING 224
SWIDTH 455 0
DWIDTH 5 0
BBX 4 9 0 0
BITMAP
40
20
00
E0
10
70
90
90
70
ENDCHAR
STARTCHAR aacute
ENCODING 225
SWIDTH 455 0
DWIDTH 5 0
BBX 4 9 0 0
BITMAP
20
40
00
E0
10
70
90
90
70
ENDCHAR
STARTCHAR acircumflex
ENCODING 226
SWIDTH 455 0
DWIDTH 5 0
BBX 4 9 0 0
BITMAP
20
50
00
E0
10
70
90
90
70
ENDCHAR
STARTCHAR atilde
ENCODING 227
SWIDTH 455 0
DWIDTH 5 0
BBX 4 9 0 0
BITMAP
50
A0
00
E0
10
70
90
90
70
ENDCHAR
STARTCHAR adieresis
ENCODING 228
SWIDTH 455 0
DWIDTH 5 0
BBX 4 8 0 0
BITMAP
90
00
E0
10
70
90
90
70
ENDCHAR
STARTCHAR aring
ENCODING 229
SWIDTH 455 0
DWIDTH 5 0
BBX 4 9 0 0
BITMAP
20
50
20
E0
10
70
90
90
70
ENDCHAR
STARTCHAR ae
ENCODING 230
SWIDTH 727 0
DWIDTH 8 0
BBX 7 6 0 0
BITMAP
7E
92
7E
90
92
7E
ENDCHAR
STARTCHAR ccedilla
ENCODING 231
SWIDTH 455 0
DWIDTH 5 0
BBX 4 8 0 -2
BITMAP
60
90
80
80
90
60
20
60
ENDCHAR
STARTCHAR egrave
ENCODING 232
SWIDTH 455 0
DWIDTH 5 0
BBX 4 9 0 0
BITMAP
40
20
00
60
90
F0
80
90
60
ENDCHAR
STARTCHAR eacute
ENCODING 233
SWIDTH 455 0
DWIDTH 5 0
BBX 4 9 0 0
BITMAP
20
40
00
60
90
F0
80
90
60
ENDCHAR
STARTCHAR ecircumflex
ENCODING 234
SWIDTH 455 0
DWIDTH 5 0
BBX 4 9 0 0
BITMAP
20
50
00
60
90
F0
80
90
60
ENDCHAR
STARTCHAR edieresis
ENCODING 235
SWIDTH 455 0
DWIDTH 5 0
BBX 4 8 0 0
BITMAP
90
00
60
90
F0
80
90
60
ENDCHAR
STARTCHAR igrave
ENCODING 236
SWIDTH 273 0
DWIDTH 3 0
BBX 2 9 0 0
BITMAP
80
40
00
00
40
40
40
40
40
ENDCHAR
STARTCHAR iacute
ENCODING 237
SWIDTH 182 0
DWIDTH 2 0
BBX 2 9 0 0
BITMAP
40
80
00
00
80
80
80
80
80
ENDCHAR
STARTCHAR icircumflex
ENCODING 238
SWIDTH 364 0
DWIDTH 4 0
BBX 3 9 0 0
BITMAP
40
A0
00
00
40
40
40
40
40
ENDCHAR
STARTCHAR idieresis
ENCODING 239
SWIDTH 364 0
DWIDTH 4 0
BBX 3 8 0 0
BITMAP
A0
00
00
40
40
40
40
40
ENDCHAR
STARTCHAR ntilde
ENCODING 241
SWIDTH 455 0
DWIDTH 5 0
BBX 4 9 0 0
BITMAP
50
A0
00
E0
90
90
90
90
90
ENDCHAR
STARTCHAR ograve
ENCODING 242
SWIDTH 455 0
DWIDTH 5 0
BBX 4 9 0 0
BITMAP
40
20
00
60
90
90
90
90
60
ENDCHAR
STARTCHAR oacute
ENCODING 243
SWIDTH 455 0
DWIDTH 5 0
BBX 4 9 0 0
BITMAP
20
40
00
60
90
90
90
90
60
ENDCHAR
STARTCHAR ocircumflex
ENCODING 244
SWIDTH 455 0
DWIDTH 5 0
BBX 4 9 0 0
BITMAP
40
A0
00
60
90
90
90
90
60
ENDCHAR
STARTCHAR otilde
ENCODING 245
SWIDTH 455 0
DWIDTH 5 0
BBX 4 9 0 0
BITMAP
50
A0
00
60
90
90
90
90
60
ENDCHAR
STARTCHAR odieresis
ENCODING 246
SWIDTH 455 0
DWIDTH 5 0
BBX 4 8 0 0
BITMAP
90
00
60
90
90
90
90
60
ENDCHAR
STARTCHAR divide
ENCODING 247
SWIDTH 600 0
DWIDTH 6 0
BBX 5 5 0 1
BITMAP
20
00
F8
00
20
ENDCHAR
STARTCHAR oslash
ENCODING 248
SWIDTH 545 0
DWIDTH 6 0
BBX 5 8 0 -1
BITMAP
10
70
98
A8
A8
C8
70
40
ENDCHAR
STARTCHAR ugrave
ENCODING 249
SWIDTH 455 0
DWIDTH 5 0
BBX 4 9 0 0
BITMAP
40
20
00
90
90
90
90
90
60
ENDCHAR
STARTCHAR uacute
ENCODING 250
SWIDTH 455 0
DWIDTH 5 0
BBX 4 9 0 0
BITMAP
20
40
00
90
90
90
90
90
60
ENDCHAR
STARTCHAR ucircumflex
ENCODING 251
SWIDTH 455 0
DWIDTH 5 0
BBX 4 9 0 0
BITMAP
40
A0
00
90
90
90
90
90
60
ENDCHAR
STARTCHAR udieresis
ENCODING 252
SWIDTH 455 0
DWIDTH 5 0
BBX 4 8 0 0
BITMAP
90
00
90
90
90
90
90
60
ENDCHAR
STARTCHAR ydieresis
ENCODING 255
SWIDTH 455 0
DWIDTH 5 0
BBX 4 10 0 -2
BITMAP
90
00
90
90
90
90
90
70
10
60
ENDCHAR
STARTCHAR hyphen
ENCODING 45
SWIDTH 352 0
DWIDTH 3 0
BBX 2 1 0 3
BITMAP
C0
ENDCHAR
STARTCHAR fraction
ENCODING 8260
SWIDTH 455 0
DWIDTH 5 0
BBX 4 7 0 0
BITMAP
10
20
20
40
40
80
80
ENDCHAR
STARTCHAR fi
ENCODING 64257
SWIDTH 463 0
DWIDTH 5 0
BBX 4 7 0 0
BITMAP
30
40
F0
50
50
50
50
ENDCHAR
STARTCHAR fl
ENCODING 64258
SWIDTH 463 0
DWIDTH 5 0
BBX 4 7 0 0
BITMAP
30
50
F0
50
50
50
50
ENDCHAR
STARTCHAR Delta
ENCODING 916
SWIDTH 501 0
DWIDTH 5 0
BBX 5 7 0 0
BITMAP
20
50
50
50
88
88
F8
ENDCHAR
STARTCHAR Omega
ENCODING 937
SWIDTH 727 0
DWIDTH 8 0
BBX 7 8 0 0
BITMAP
38
44
44
44
44
44
44
EE
ENDCHAR
STARTCHAR pi
ENCODING 960
SWIDTH 545 0
DWIDTH 6 0
BBX 5 6 0 0
BITMAP
F8
48
48
48
48
48
ENDCHAR
STARTCHAR uni20AC
ENCODING 128
SWIDTH 480 0
DWIDTH 5 0
BBX 5 7 0 0
BITMAP
38
40
F0
40
F0
40
38
ENDCHAR
STARTCHAR Scaron
ENCODING 352
SWIDTH 545 0
DWIDTH 6 0
BBX 5 9 0 0
BITMAP
50
20
70
88
80
70
08
88
70
ENDCHAR
STARTCHAR scaron
ENCODING 353
SWIDTH 455 0
DWIDTH 5 0
BBX 4 9 0 0
BITMAP
50
20
00
70
80
E0
10
10
E0
ENDCHAR
STARTCHAR brokenbar
ENCODING 166
SWIDTH 222 0
DWIDTH 2 0
BBX 1 8 1 0
BITMAP
80
80
80
00
00
80
80
80
ENDCHAR
STARTCHAR twosuperior
ENCODING 178
SWIDTH 364 0
DWIDTH 4 0
BBX 3 5 0 3
BITMAP
E0
20
40
80
E0
ENDCHAR
STARTCHAR threesuperior
ENCODING 179
SWIDTH 364 0
DWIDTH 4 0
BBX 3 5 0 3
BITMAP
E0
20
40
20
E0
ENDCHAR
STARTCHAR onesuperior
ENCODING 185
SWIDTH 312 0
DWIDTH 3 0
BBX 1 5 1 3
BITMAP
80
80
80
80
80
ENDCHAR
STARTCHAR onequarter
ENCODING 188
SWIDTH 818 0
DWIDTH 9 0
BBX 8 8 0 0
BITMAP
84
88
88
91
93
25
27
41
ENDCHAR
STARTCHAR onehalf
ENCODING 189
SWIDTH 909 0
DWIDTH 10 0
BBX 9 8 0 0
BITMAP
8400
8800
8800
9380
9080
2100
2200
4380
ENDCHAR
STARTCHAR threequarters
ENCODING 190
SWIDTH 909 0
DWIDTH 10 0
BBX 9 8 0 0
BITMAP
C200
2400
4400
2880
C980
1280
1380
2080
ENDCHAR
STARTCHAR Eth
ENCODING 208
SWIDTH 455 0
DWIDTH 5 0
BBX 5 7 -1 0
BITMAP
70
48
48
E8
48
48
70
ENDCHAR
STARTCHAR multiply
ENCODING 215
SWIDTH 600 0
DWIDTH 6 0
BBX 4 4 1 1
BITMAP
90
60
60
90
ENDCHAR
STARTCHAR Yacute
ENCODING 221
SWIDTH 545 0
DWIDTH 6 0
BBX 5 9 0 0
BITMAP
10
20
88
88
50
20
20
20
20
ENDCHAR
STARTCHAR Thorn
ENCODING 222
SWIDTH 455 0
DWIDTH 5 0
BBX 4 8 0 0
BITMAP
80
80
F0
90
90
F0
80
80
ENDCHAR
STARTCHAR eth
ENCODING 240
SWIDTH 636 0
DWIDTH 7 0
BBX 6 9 0 0
BITMAP
08
0C
18
08
78
88
88
88
70
ENDCHAR
STARTCHAR yacute
ENCODING 253
SWIDTH 455 0
DWIDTH 5 0
BBX 4 11 0 -2
BITMAP
20
40
00
90
90
90
90
90
70
10
60
ENDCHAR
STARTCHAR thorn
ENCODING 254
SWIDTH 463 0
DWIDTH 5 0
BBX 4 10 1 -2
BITMAP
80
80
E0
90
90
90
90
E0
80
80
ENDCHAR
STARTCHAR uni0374
ENCODING 884
SWIDTH 204 0
DWIDTH 2 0
BBX 1 1 0 6
BITMAP
80
ENDCHAR
STARTCHAR uni0375
ENCODING 885
SWIDTH 204 0
DWIDTH 2 0
BBX 2 2 0 -2
BITMAP
40
80
ENDCHAR
STARTCHAR Lslash
ENCODING 321
SWIDTH 545 0
DWIDTH 6 0
BBX 5 7 0 0
BITMAP
40
40
60
C0
40
40
78
ENDCHAR
STARTCHAR lslash
ENCODING 322
SWIDTH 364 0
DWIDTH 4 0
BBX 3 7 0 0
BITMAP
40
40
60
C0
40
40
60
ENDCHAR
STARTCHAR zcaron
ENCODING 158
SWIDTH 455 0
DWIDTH 5 0
BBX 4 9 0 0
BITMAP
A0
40
00
F0
10
20
40
80
F0
ENDCHAR
STARTCHAR Zcaron
ENCODING 142
SWIDTH 545 0
DWIDTH 6 0
BBX 5 9 0 0
BITMAP
50
20
F8
08
10
20
40
80
F8
ENDCHAR
STARTCHAR tonos
ENCODING 900
SWIDTH 222 0
DWIDTH 2 0
BBX 1 1 0 6
BITMAP
80
ENDCHAR
STARTCHAR dieresistonos
ENCODING 901
SWIDTH 455 0
DWIDTH 5 0
BBX 4 1 0 7
BITMAP
F0
ENDCHAR
STARTCHAR Alphatonos
ENCODING 902
SWIDTH 636 0
DWIDTH 7 0
BBX 6 7 0 0
BITMAP
98
24
24
24
3C
24
24
ENDCHAR
STARTCHAR anoteleia
ENCODING 903
SWIDTH 240 0
DWIDTH 2 0
BBX 1 1 0 3
BITMAP
80
ENDCHAR
STARTCHAR Epsilontonos
ENCODING 904
SWIDTH 636 0
DWIDTH 7 0
BBX 6 7 0 0
BITMAP
BC
20
20
3C
20
20
3C
ENDCHAR
STARTCHAR Etatonos
ENCODING 905
SWIDTH 636 0
DWIDTH 7 0
BBX 6 7 0 0
BITMAP
A4
24
24
3C
24
24
24
ENDCHAR
STARTCHAR Iotatonos
ENCODING 906
SWIDTH 364 0
DWIDTH 4 0
BBX 3 7 0 0
BITMAP
A0
20
20
20
20
20
20
ENDCHAR
STARTCHAR Omicrontonos
ENCODING 908
SWIDTH 545 0
DWIDTH 6 0
BBX 5 7 0 0
BITMAP
B0
48
48
48
48
48
30
ENDCHAR
STARTCHAR Upsilontonos
ENCODING 910
SWIDTH 727 0
DWIDTH 8 0
BBX 7 7 0 0
BITMAP
A2
22
14
08
08
08
08
ENDCHAR
STARTCHAR Omegatonos
ENCODING 911
SWIDTH 727 0
DWIDTH 8 0
BBX 8 7 -1 0
BITMAP
9C
22
22
22
22
22
77
ENDCHAR
STARTCHAR iotadieresistonos
ENCODING 912
SWIDTH 455 0
DWIDTH 5 0
BBX 4 8 0 0
BITMAP
F0
00
20
20
20
20
20
20
ENDCHAR
STARTCHAR Alpha
ENCODING 913
SWIDTH 455 0
DWIDTH 5 0
BBX 4 7 0 0
BITMAP
60
90
90
90
F0
90
90
ENDCHAR
STARTCHAR Beta
ENCODING 914
SWIDTH 519 0
DWIDTH 5 0
BBX 4 7 0 0
BITMAP
E0
90
90
E0
90
90
E0
ENDCHAR
STARTCHAR Gamma
ENCODING 915
SWIDTH 455 0
DWIDTH 5 0
BBX 4 7 0 0
BITMAP
F0
80
80
80
80
80
80
ENDCHAR
STARTCHAR Epsilon
ENCODING 917
SWIDTH 463 0
DWIDTH 5 0
BBX 4 7 0 0
BITMAP
F0
80
80
F0
80
80
F0
ENDCHAR
STARTCHAR Zeta
ENCODING 918
SWIDTH 545 0
DWIDTH 6 0
BBX 5 7 0 0
BITMAP
F8
08
10
20
40
80
F8
ENDCHAR
STARTCHAR Eta
ENCODING 919
SWIDTH 537 0
DWIDTH 5 0
BBX 4 7 0 0
BITMAP
90
90
90
F0
90
90
90
ENDCHAR
STARTCHAR Theta
ENCODING 920
SWIDTH 455 0
DWIDTH 5 0
BBX 4 7 0 0
BITMAP
60
90
90
F0
90
90
60
ENDCHAR
STARTCHAR Iota
ENCODING 921
SWIDTH 204 0
DWIDTH 2 0
BBX 1 7 1 0
BITMAP
80
80
80
80
80
80
80
ENDCHAR
STARTCHAR Kappa
ENCODING 922
SWIDTH 500 0
DWIDTH 5 0
BBX 4 7 0 0
BITMAP
90
90
A0
C0
A0
90
90
ENDCHAR
STARTCHAR Lambda
ENCODING 923
SWIDTH 545 0
DWIDTH 6 0
BBX 5 7 0 0
BITMAP
20
50
50
50
50
88
88
ENDCHAR
STARTCHAR Mu
ENCODING 924
SWIDTH 545 0
DWIDTH 6 0
BBX 5 7 0 0
BITMAP
88
D8
A8
A8
A8
A8
A8
ENDCHAR
STARTCHAR Nu
ENCODING 925
SWIDTH 455 0
DWIDTH 5 0
BBX 4 7 0 0
BITMAP
90
D0
B0
90
90
90
90
ENDCHAR
STARTCHAR Xi
ENCODING 926
SWIDTH 455 0
DWIDTH 5 0
BBX 4 7 0 0
BITMAP
F0
00
00
70
00
00
F0
ENDCHAR
STARTCHAR Omicron
ENCODING 927
SWIDTH 455 0
DWIDTH 5 0
BBX 4 7 0 0
BITMAP
60
90
90
90
90
90
60
ENDCHAR
STARTCHAR Pi
ENCODING 928
SWIDTH 455 0
DWIDTH 5 0
BBX 4 7 0 0
BITMAP
F0
90
90
90
90
90
90
ENDCHAR
STARTCHAR Rho
ENCODING 929
SWIDTH 455 0
DWIDTH 5 0
BBX 4 7 0 0
BITMAP
E0
90
90
E0
80
80
80
ENDCHAR
STARTCHAR Sigma
ENCODING 931
SWIDTH 455 0
DWIDTH 5 0
BBX 5 7 0 0
BITMAP
F8
40
20
10
20
40
F8
ENDCHAR
STARTCHAR Tau
ENCODING 932
SWIDTH 545 0
DWIDTH 6 0
BBX 5 7 0 0
BITMAP
F8
20
20
20
20
20
20
ENDCHAR
STARTCHAR Upsilon
ENCODING 933
SWIDTH 545 0
DWIDTH 6 0
BBX 5 7 0 0
BITMAP
88
88
50
20
20
20
20
ENDCHAR
STARTCHAR Phi
ENCODING 934
SWIDTH 455 0
DWIDTH 5 0
BBX 5 8 0 -1
BITMAP
20
70
A8
A8
A8
A8
70
20
ENDCHAR
STARTCHAR Chi
ENCODING 935
SWIDTH 545 0
DWIDTH 6 0
BBX 5 7 0 0
BITMAP
88
88
50
20
50
88
88
ENDCHAR
STARTCHAR Psi
ENCODING 936
SWIDTH 663 0
DWIDTH 7 0
BBX 7 7 0 0
BITMAP
92
92
92
92
7C
10
10
ENDCHAR
STARTCHAR Iotadieresis
ENCODING 938
SWIDTH 278 0
DWIDTH 3 0
BBX 3 9 0 0
BITMAP
A0
00
40
40
40
40
40
40
40
ENDCHAR
STARTCHAR Upsilondieresis
ENCODING 939
SWIDTH 545 0
DWIDTH 6 0
BBX 5 9 0 0
BITMAP
50
00
88
88
50
20
20
20
20
ENDCHAR
STARTCHAR alphatonos
ENCODING 940
SWIDTH 545 0
DWIDTH 6 0
BBX 5 8 0 0
BITMAP
20
00
70
90
90
90
90
78
ENDCHAR
STARTCHAR epsilontonos
ENCODING 941
SWIDTH 455 0
DWIDTH 5 0
BBX 4 8 0 0
BITMAP
20
00
70
90
40
80
90
70
ENDCHAR
STARTCHAR etatonos
ENCODING 942
SWIDTH 545 0
DWIDTH 6 0
BBX 5 10 0 -2
BITMAP
20
00
F0
48
48
48
48
48
08
08
ENDCHAR
STARTCHAR iotatonos
ENCODING 943
SWIDTH 182 0
DWIDTH 2 0
BBX 4 8 -2 0
BITMAP
A0
00
20
20
20
20
20
30
ENDCHAR
STARTCHAR upsilondieresistonos
ENCODING 944
SWIDTH 455 0
DWIDTH 5 0
BBX 4 8 0 0
BITMAP
F0
00
A0
90
90
90
90
E0
ENDCHAR
STARTCHAR alpha
ENCODING 945
SWIDTH 545 0
DWIDTH 6 0
BBX 5 6 0 0
BITMAP
70
90
90
90
90
78
ENDCHAR
STARTCHAR beta
ENCODING 946
SWIDTH 455 0
DWIDTH 5 0
BBX 4 9 0 -2
BITMAP
E0
90
90
A0
90
90
E0
80
80
ENDCHAR
STARTCHAR gamma
ENCODING 947
SWIDTH 455 0
DWIDTH 5 0
BBX 4 8 0 -2
BITMAP
90
50
50
50
20
20
20
20
ENDCHAR
STARTCHAR delta
ENCODING 948
SWIDTH 455 0
DWIDTH 5 0
BBX 4 8 0 0
BITMAP
F0
40
60
90
90
90
90
60
ENDCHAR
STARTCHAR epsilon
ENCODING 949
SWIDTH 455 0
DWIDTH 5 0
BBX 4 6 0 0
BITMAP
70
90
40
80
90
70
ENDCHAR
STARTCHAR zeta
ENCODING 950
SWIDTH 382 0
DWIDTH 4 0
BBX 4 10 0 -2
BITMAP
70
20
40
80
80
80
80
70
10
20
ENDCHAR
STARTCHAR eta
ENCODING 951
SWIDTH 545 0
DWIDTH 6 0
BBX 5 8 0 -2
BITMAP
F0
48
48
48
48
48
08
08
ENDCHAR
STARTCHAR theta
ENCODING 952
SWIDTH 455 0
DWIDTH 5 0
BBX 4 7 0 0
BITMAP
60
90
90
F0
90
90
60
ENDCHAR
STARTCHAR iota
ENCODING 953
SWIDTH 273 0
DWIDTH 3 0
BBX 2 6 0 0
BITMAP
80
80
80
80
80
C0
ENDCHAR
STARTCHAR kappa
ENCODING 954
SWIDTH 455 0
DWIDTH 5 0
BBX 4 6 0 0
BITMAP
90
A0
C0
A0
90
90
ENDCHAR
STARTCHAR lambda
ENCODING 955
SWIDTH 431 0
DWIDTH 4 0
BBX 5 7 0 0
BITMAP
40
20
20
60
90
90
98
ENDCHAR
STARTCHAR uni03BC
ENCODING 956
SWIDTH 463 0
DWIDTH 5 0
BBX 4 8 0 -2
BITMAP
90
90
90
90
90
E0
80
80
ENDCHAR
STARTCHAR nu
ENCODING 957
SWIDTH 455 0
DWIDTH 5 0
BBX 4 6 0 0
BITMAP
90
90
90
90
50
20
ENDCHAR
STARTCHAR xi
ENCODING 958
SWIDTH 545 0
DWIDTH 6 0
BBX 5 9 0 -2
BITMAP
F0
40
40
30
40
40
38
08
08
ENDCHAR
STARTCHAR omicron
ENCODING 959
SWIDTH 455 0
DWIDTH 5 0
BBX 4 6 0 0
BITMAP
60
90
90
90
90
60
ENDCHAR
STARTCHAR rho
ENCODING 961
SWIDTH 455 0
DWIDTH 5 0
BBX 4 8 0 -2
BITMAP
60
90
90
90
90
E0
80
80
ENDCHAR
STARTCHAR sigma1
ENCODING 962
SWIDTH 455 0
DWIDTH 5 0
BBX 4 8 0 -2
BITMAP
60
90
80
80
40
30
10
10
ENDCHAR
STARTCHAR sigma
ENCODING 963
SWIDTH 545 0
DWIDTH 6 0
BBX 5 6 0 0
BITMAP
78
90
90
90
90
60
ENDCHAR
STARTCHAR tau
ENCODING 964
SWIDTH 455 0
DWIDTH 5 0
BBX 4 6 0 0
BITMAP
F0
40
40
40
40
60
ENDCHAR
STARTCHAR upsilon
ENCODING 965
SWIDTH 455 0
DWIDTH 5 0
BBX 4 6 0 0
BITMAP
A0
90
90
90
A0
C0
ENDCHAR
STARTCHAR phi
ENCODING 966
SWIDTH 636 0
DWIDTH 7 0
BBX 6 8 0 -2
BITMAP
58
94
94
94
94
78
10
10
ENDCHAR
STARTCHAR chi
ENCODING 967
SWIDTH 727 0
DWIDTH 8 0
BBX 7 7 0 -1
BITMAP
C4
44
28
10
28
44
42
ENDCHAR
STARTCHAR psi
ENCODING 968
SWIDTH 545 0
DWIDTH 6 0
BBX 5 9 0 -2
BITMAP
20
A8
A8
A8
A8
A8
70
20
20
ENDCHAR
STARTCHAR omega
ENCODING 969
SWIDTH 727 0
DWIDTH 8 0
BBX 7 6 0 0
BITMAP
44
82
92
92
92
6C
ENDCHAR
STARTCHAR iotadieresis
ENCODING 970
SWIDTH 364 0
DWIDTH 4 0
BBX 3 8 0 0
BITMAP
A0
00
40
40
40
40
40
40
ENDCHAR
STARTCHAR upsilondieresis
ENCODING 971
SWIDTH 455 0
DWIDTH 5 0
BBX 4 8 0 0
BITMAP
A0
00
A0
90
90
90
90
E0
ENDCHAR
STARTCHAR omicrontonos
ENCODING 972
SWIDTH 455 0
DWIDTH 5 0
BBX 4 8 0 0
BITMAP
40
00
60
90
90
90
90
60
ENDCHAR
STARTCHAR upsilontonos
ENCODING 973
SWIDTH 455 0
DWIDTH 5 0
BBX 4 8 0 0
BITMAP
40
00
A0
90
90
90
90
E0
ENDCHAR
STARTCHAR omegatonos
ENCODING 974
SWIDTH 727 0
DWIDTH 8 0
BBX 7 8 0 0
BITMAP
10
00
44
82
92
92
92
6C
ENDCHAR
STARTCHAR uni03D0
ENCODING 976
SWIDTH 455 0
DWIDTH 5 0
BBX 4 8 0 0
BITMAP
60
90
90
A0
90
90
90
60
ENDCHAR
STARTCHAR theta1
ENCODING 977
SWIDTH 636 0
DWIDTH 7 0
BBX 6 8 0 0
BITMAP
30
48
48
3C
08
C8
48
30
ENDCHAR
STARTCHAR Upsilon1
ENCODING 978
SWIDTH 545 0
DWIDTH 6 0
BBX 5 8 0 0
BITMAP
88
50
50
50
20
20
20
20
ENDCHAR
STARTCHAR uni03D3
ENCODING 979
SWIDTH 727 0
DWIDTH 8 0
BBX 7 8 0 0
BITMAP
A2
22
14
08
08
08
08
08
ENDCHAR
STARTCHAR uni03D4
ENCODING 980
SWIDTH 545 0
DWIDTH 6 0
BBX 5 9 0 0
BITMAP
50
00
88
88
50
20
20
20
20
ENDCHAR
STARTCHAR phi1
ENCODING 981
SWIDTH 545 0
DWIDTH 6 0
BBX 5 9 0 -2
BITMAP
20
70
A8
A8
A8
A8
70
20
20
ENDCHAR
STARTCHAR omega1
ENCODING 982
SWIDTH 636 0
DWIDTH 7 0
BBX 6 6 0 0
BITMAP
F8
44
94
94
94
7C
ENDCHAR
STARTCHAR uni03D7
ENCODING 983
SWIDTH 545 0
DWIDTH 6 0
BBX 5 8 0 -2
BITMAP
90
50
20
20
50
88
08
10
ENDCHAR
STARTCHAR uni03D8
ENCODING 984
SWIDTH 545 0
DWIDTH 6 0
BBX 5 10 0 -2
BITMAP
70
88
88
88
88
88
88
70
20
20
ENDCHAR
STARTCHAR uni03D9
ENCODING 985
SWIDTH 545 0
DWIDTH 6 0
BBX 5 8 0 -2
BITMAP
70
88
88
88
88
70
20
20
ENDCHAR
STARTCHAR uni03DA
ENCODING 986
SWIDTH 417 0
DWIDTH 4 0
BBX 4 10 1 -2
BITMAP
70
80
80
80
80
80
80
70
10
20
ENDCHAR
STARTCHAR uni03DB
ENCODING 987
SWIDTH 455 0
DWIDTH 5 0
BBX 4 8 0 -2
BITMAP
70
80
80
80
80
70
10
20
ENDCHAR
STARTCHAR uni03DC
ENCODING 988
SWIDTH 444 0
DWIDTH 4 0
BBX 4 8 1 0
BITMAP
F0
80
80
F0
80
80
80
80
ENDCHAR
STARTCHAR uni03DD
ENCODING 989
SWIDTH 364 0
DWIDTH 4 0
BBX 3 8 0 -2
BITMAP
E0
80
80
E0
80
80
80
80
ENDCHAR
STARTCHAR uni03DE
ENCODING 990
SWIDTH 364 0
DWIDTH 4 0
BBX 3 8 0 0
BITMAP
80
80
80
80
E0
20
40
80
ENDCHAR
STARTCHAR uni03DF
ENCODING 991
SWIDTH 455 0
DWIDTH 5 0
BBX 4 7 0 0
BITMAP
20
40
80
F0
10
20
40
ENDCHAR
STARTCHAR uni03E0
ENCODING 992
SWIDTH 727 0
DWIDTH 8 0
BBX 7 10 0 -2
BITMAP
80
60
10
18
68
0C
34
02
02
02
ENDCHAR
STARTCHAR uni03E1
ENCODING 993
SWIDTH 636 0
DWIDTH 7 0
BBX 6 6 0 0
BITMAP
C0
20
50
18
24
04
ENDCHAR
STARTCHAR uni03E2
ENCODING 994
SWIDTH 727 0
DWIDTH 8 0
BBX 7 10 0 -2
BITMAP
92
92
92
92
92
92
92
6E
02
FC
ENDCHAR
STARTCHAR uni03E4
ENCODING 996
SWIDTH 545 0
DWIDTH 6 0
BBX 5 8 0 0
BITMAP
48
88
88
88
78
08
08
08
ENDCHAR
STARTCHAR uni03E5
ENCODING 997
SWIDTH 455 0
DWIDTH 5 0
BBX 4 8 0 -2
BITMAP
50
90
90
90
90
70
10
10
ENDCHAR
STARTCHAR uni03E6
ENCODING 998
SWIDTH 455 0
DWIDTH 5 0
BBX 4 10 0 -2
BITMAP
80
80
80
F0
90
90
90
90
10
E0
ENDCHAR
STARTCHAR uni03E7
ENCODING 999
SWIDTH 636 0
DWIDTH 7 0
BBX 6 6 0 0
BITMAP
70
88
7C
08
C8
70
ENDCHAR
STARTCHAR uni03E8
ENCODING 1000
SWIDTH 545 0
DWIDTH 6 0
BBX 5 8 0 0
BITMAP
70
88
48
10
20
48
88
70
ENDCHAR
STARTCHAR uni03E9
ENCODING 1001
SWIDTH 545 0
DWIDTH 6 0
BBX 5 8 0 -2
BITMAP
60
90
90
60
40
80
88
70
ENDCHAR
STARTCHAR uni03EB
ENCODING 1003
SWIDTH 545 0
DWIDTH 6 0
BBX 5 6 0 0
BITMAP
D8
50
20
20
50
F8
ENDCHAR
STARTCHAR uni03EC
ENCODING 1004
SWIDTH 455 0
DWIDTH 5 0
BBX 4 8 0 0
BITMAP
70
80
E0
90
90
90
90
70
ENDCHAR
STARTCHAR uni03ED
ENCODING 1005
SWIDTH 455 0
DWIDTH 5 0
BBX 4 6 0 0
BITMAP
70
80
E0
90
90
70
ENDCHAR
STARTCHAR uni03EE
ENCODING 1006
SWIDTH 545 0
DWIDTH 6 0
BBX 5 8 0 0
BITMAP
20
70
A8
20
20
20
20
20
ENDCHAR
STARTCHAR uni03EF
ENCODING 1007
SWIDTH 545 0
DWIDTH 6 0
BBX 5 10 0 -2
BITMAP
20
20
70
A8
20
20
20
20
20
20
ENDCHAR
STARTCHAR uni03F0
ENCODING 1008
SWIDTH 727 0
DWIDTH 8 0
BBX 7 6 0 0
BITMAP
C4
28
10
10
28
46
ENDCHAR
STARTCHAR uni03F1
ENCODING 1009
SWIDTH 545 0
DWIDTH 6 0
BBX 5 8 0 -2
BITMAP
70
88
88
88
88
F0
80
60
ENDCHAR
STARTCHAR uni03F2
ENCODING 1010
SWIDTH 455 0
DWIDTH 5 0
BBX 4 6 0 0
BITMAP
70
90
80
80
90
70
ENDCHAR
STARTCHAR uni03F4
ENCODING 1012
SWIDTH 545 0
DWIDTH 6 0
BBX 5 8 0 0
BITMAP
70
88
88
88
F8
88
88
70
ENDCHAR
STARTCHAR uni03F5
ENCODING 1013
SWIDTH 545 0
DWIDTH 6 0
BBX 5 6 0 0
BITMAP
70
88
80
E0
88
70
ENDCHAR
STARTCHAR uni03F6
ENCODING 1014
SWIDTH 545 0
DWIDTH 6 0
BBX 5 6 0 0
BITMAP
70
88
08
38
88
70
ENDCHAR
STARTCHAR uni03F7
ENCODING 1015
SWIDTH 455 0
DWIDTH 5 0
BBX 4 8 0 0
BITMAP
80
80
F0
90
90
F0
80
80
ENDCHAR
STARTCHAR uni03F8
ENCODING 1016
SWIDTH 364 0
DWIDTH 4 0
BBX 4 10 0 -2
BITMAP
80
80
E0
90
90
90
90
E0
80
80
ENDCHAR
STARTCHAR uni03F9
ENCODING 1017
SWIDTH 455 0
DWIDTH 5 0
BBX 4 8 0 0
BITMAP
70
90
80
80
80
80
90
70
ENDCHAR
STARTCHAR uni03FA
ENCODING 1018
SWIDTH 545 0
DWIDTH 6 0
BBX 5 8 0 0
BITMAP
88
88
D8
D8
A8
A8
88
88
ENDCHAR
STARTCHAR uni03FB
ENCODING 1019
SWIDTH 619 0
DWIDTH 6 0
BBX 5 8 1 -2
BITMAP
88
88
D8
D8
A8
A8
80
80
ENDCHAR
STARTCHAR uni03EA
ENCODING 1002
SWIDTH 545 0
DWIDTH 6 0
BBX 5 8 0 0
BITMAP
88
50
50
20
20
50
88
F8
ENDCHAR
STARTCHAR uni03F3
ENCODING 1011
SWIDTH 204 0
DWIDTH 2 0
BBX 2 10 0 -2
BITMAP
40
00
40
40
40
40
40
40
40
80
ENDCHAR
STARTCHAR uni03E3
ENCODING 995
SWIDTH 727 0
DWIDTH 8 0
BBX 7 8 0 -2
BITMAP
92
92
92
92
92
6E
02
7C
ENDCHAR
STARTCHAR uni037E
ENCODING 894
SWIDTH 240 0
DWIDTH 2 0
BBX 1 7 1 -1
BITMAP
80
80
00
00
00
80
80
ENDCHAR
STARTCHAR uni037A
ENCODING 890
SWIDTH 204 0
DWIDTH 2 0
BBX 1 1 1 -2
BITMAP
80
ENDCHAR
STARTCHAR afii10058
ENCODING 1033
SWIDTH 909 0
DWIDTH 10 0
BBX 9 7 0 0
BITMAP
7800
4800
4F00
4880
4880
4880
CF00
ENDCHAR
STARTCHAR afii10059
ENCODING 1034
SWIDTH 818 0
DWIDTH 9 0
BBX 8 7 0 0
BITMAP
90
90
FE
91
91
91
9E
ENDCHAR
STARTCHAR afii10061
ENCODING 1036
SWIDTH 500 0
DWIDTH 5 0
BBX 4 9 0 0
BITMAP
20
40
90
90
A0
C0
A0
90
90
ENDCHAR
STARTCHAR afii10060
ENCODING 1035
SWIDTH 636 0
DWIDTH 7 0
BBX 6 7 0 0
BITMAP
F8
20
3C
24
24
24
24
ENDCHAR
STARTCHAR afii10145
ENCODING 1039
SWIDTH 545 0
DWIDTH 6 0
BBX 5 9 0 -2
BITMAP
88
88
88
88
88
88
F8
20
20
ENDCHAR
STARTCHAR afii10099
ENCODING 1106
SWIDTH 727 0
DWIDTH 8 0
BBX 5 9 1 -2
BITMAP
40
F0
40
70
58
48
48
18
30
ENDCHAR
STARTCHAR afii10106
ENCODING 1113
SWIDTH 727 0
DWIDTH 8 0
BBX 7 6 0 0
BITMAP
70
50
5C
52
52
DE
ENDCHAR
STARTCHAR afii10107
ENCODING 1114
SWIDTH 636 0
DWIDTH 7 0
BBX 6 6 0 0
BITMAP
A0
A0
F8
A4
A4
BC
ENDCHAR
STARTCHAR afii10109
ENCODING 1116
SWIDTH 455 0
DWIDTH 5 0
BBX 4 9 0 0
BITMAP
20
40
00
90
A0
C0
A0
90
90
ENDCHAR
STARTCHAR afii10108
ENCODING 1115
SWIDTH 463 0
DWIDTH 5 0
BBX 5 7 0 0
BITMAP
40
F0
40
70
48
48
48
ENDCHAR
STARTCHAR afii10193
ENCODING 1119
SWIDTH 463 0
DWIDTH 5 0
BBX 3 8 1 -2
BITMAP
A0
A0
A0
A0
A0
E0
40
40
ENDCHAR
STARTCHAR afii10051
ENCODING 1026
SWIDTH 727 0
DWIDTH 8 0
BBX 6 9 0 -2
BITMAP
F8
20
20
38
24
24
24
04
18
ENDCHAR
STARTCHAR afii10052
ENCODING 1027
SWIDTH 455 0
DWIDTH 5 0
BBX 4 9 0 0
BITMAP
40
80
F0
80
80
80
80
80
80
ENDCHAR
STARTCHAR afii10100
ENCODING 1107
SWIDTH 361 0
DWIDTH 3 0
BBX 3 8 1 0
BITMAP
40
80
E0
80
80
80
80
80
ENDCHAR
STARTCHAR afii10062
ENCODING 1038
SWIDTH 474 0
DWIDTH 5 0
BBX 5 9 0 0
BITMAP
50
20
88
88
50
20
20
20
20
ENDCHAR
STARTCHAR afii10110
ENCODING 1118
SWIDTH 455 0
DWIDTH 5 0
BBX 4 10 0 -2
BITMAP
50
20
90
90
90
90
90
70
10
60
ENDCHAR
STARTCHAR afii10057
ENCODING 1032
SWIDTH 426 0
DWIDTH 4 0
BBX 4 7 0 0
BITMAP
10
10
10
10
10
90
60
ENDCHAR
STARTCHAR afii10105
ENCODING 1112
SWIDTH 273 0
DWIDTH 3 0
BBX 2 10 0 -2
BITMAP
40
00
40
40
40
40
40
40
40
80
ENDCHAR
STARTCHAR afii10054
ENCODING 1029
SWIDTH 545 0
DWIDTH 6 0
BBX 5 7 0 0
BITMAP
70
88
80
70
08
88
70
ENDCHAR
STARTCHAR afii10102
ENCODING 1109
SWIDTH 455 0
DWIDTH 5 0
BBX 4 6 0 0
BITMAP
70
80
E0
10
10
E0
ENDCHAR
STARTCHAR afii10104
ENCODING 1111
SWIDTH 273 0
DWIDTH 3 0
BBX 3 8 0 0
BITMAP
A0
00
40
40
40
40
40
40
ENDCHAR
STARTCHAR afii10017
ENCODING 1040
SWIDTH 455 0
DWIDTH 5 0
BBX 4 7 0 0
BITMAP
60
90
90
90
F0
90
90
ENDCHAR
STARTCHAR afii10018
ENCODING 1041
SWIDTH 519 0
DWIDTH 5 0
BBX 4 7 1 0
BITMAP
F0
80
80
E0
90
90
F0
ENDCHAR
STARTCHAR afii10019
ENCODING 1042
SWIDTH 519 0
DWIDTH 5 0
BBX 4 7 0 0
BITMAP
E0
90
90
E0
90
90
E0
ENDCHAR
STARTCHAR afii10020
ENCODING 1043
SWIDTH 455 0
DWIDTH 5 0
BBX 4 7 0 0
BITMAP
F0
80
80
80
80
80
80
ENDCHAR
STARTCHAR afii10021
ENCODING 1044
SWIDTH 636 0
DWIDTH 7 0
BBX 6 9 0 -2
BITMAP
38
28
28
48
48
48
FC
84
84
ENDCHAR
STARTCHAR afii10022
ENCODING 1045
SWIDTH 463 0
DWIDTH 5 0
BBX 4 7 0 0
BITMAP
F0
80
80
F0
80
80
F0
ENDCHAR
STARTCHAR afii10071
ENCODING 1105
SWIDTH 455 0
DWIDTH 5 0
BBX 4 8 0 0
BITMAP
90
00
60
90
F0
80
90
60
ENDCHAR
STARTCHAR afii61352
ENCODING 8470
SWIDTH 909 0
DWIDTH 10 0
BBX 9 7 0 0
BITMAP
9000
D300
B480
9480
9300
9000
9780
ENDCHAR
STARTCHAR afii10101
ENCODING 1108
SWIDTH 426 0
DWIDTH 4 0
BBX 4 6 0 0
BITMAP
60
90
80
C0
90
60
ENDCHAR
STARTCHAR afii10055
ENCODING 1030
SWIDTH 204 0
DWIDTH 2 0
BBX 1 8 1 0
BITMAP
80
80
80
80
80
80
80
80
ENDCHAR
STARTCHAR afii10103
ENCODING 1110
SWIDTH 204 0
DWIDTH 2 0
BBX 1 8 1 0
BITMAP
80
00
80
80
80
80
80
80
ENDCHAR
STARTCHAR afii10098
ENCODING 1169
SWIDTH 364 0
DWIDTH 4 0
BBX 3 7 0 0
BITMAP
20
E0
80
80
80
80
80
ENDCHAR
STARTCHAR afii10056
ENCODING 1031
SWIDTH 204 0
DWIDTH 2 0
BBX 3 9 0 0
BITMAP
A0
00
40
40
40
40
40
40
40
ENDCHAR
STARTCHAR afii10053
ENCODING 1028
SWIDTH 519 0
DWIDTH 5 0
BBX 4 7 0 0
BITMAP
60
90
80
E0
80
90
60
ENDCHAR
STARTCHAR afii10023
ENCODING 1025
SWIDTH 463 0
DWIDTH 5 0
BBX 4 9 0 0
BITMAP
90
00
F0
80
80
F0
80
80
F0
ENDCHAR
STARTCHAR afii10050
ENCODING 1168
SWIDTH 455 0
DWIDTH 5 0
BBX 4 9 0 0
BITMAP
10
10
F0
80
80
80
80
80
80
ENDCHAR
STARTCHAR afii10024
ENCODING 1046
SWIDTH 727 0
DWIDTH 8 0
BBX 7 7 0 0
BITMAP
92
54
54
38
54
92
92
ENDCHAR
STARTCHAR afii10025
ENCODING 1047
SWIDTH 545 0
DWIDTH 6 0
BBX 5 7 0 0
BITMAP
70
88
08
30
08
88
70
ENDCHAR
STARTCHAR afii10026
ENCODING 1048
SWIDTH 455 0
DWIDTH 5 0
BBX 4 7 0 0
BITMAP
90
B0
D0
90
90
90
90
ENDCHAR
STARTCHAR afii10027
ENCODING 1049
SWIDTH 455 0
DWIDTH 5 0
BBX 4 9 0 0
BITMAP
90
60
90
B0
D0
90
90
90
90
ENDCHAR
STARTCHAR afii10028
ENCODING 1050
SWIDTH 500 0
DWIDTH 5 0
BBX 4 7 0 0
BITMAP
90
90
A0
C0
A0
90
90
ENDCHAR
STARTCHAR afii10029
ENCODING 1051
SWIDTH 545 0
DWIDTH 6 0
BBX 5 7 0 0
BITMAP
78
48
48
48
48
48
88
ENDCHAR
STARTCHAR afii10030
ENCODING 1052
SWIDTH 545 0
DWIDTH 6 0
BBX 5 7 0 0
BITMAP
88
D8
A8
A8
A8
A8
A8
ENDCHAR
STARTCHAR afii10031
ENCODING 1053
SWIDTH 537 0
DWIDTH 5 0
BBX 4 7 0 0
BITMAP
90
90
90
F0
90
90
90
ENDCHAR
STARTCHAR afii10032
ENCODING 1054
SWIDTH 455 0
DWIDTH 5 0
BBX 4 7 0 0
BITMAP
60
90
90
90
90
90
60
ENDCHAR
STARTCHAR afii10033
ENCODING 1055
SWIDTH 455 0
DWIDTH 5 0
BBX 4 7 0 0
BITMAP
F0
90
90
90
90
90
90
ENDCHAR
STARTCHAR afii10034
ENCODING 1056
SWIDTH 455 0
DWIDTH 5 0
BBX 4 7 0 0
BITMAP
E0
90
90
E0
80
80
80
ENDCHAR
STARTCHAR afii10035
ENCODING 1057
SWIDTH 519 0
DWIDTH 5 0
BBX 4 7 0 0
BITMAP
60
90
80
80
80
90
60
ENDCHAR
STARTCHAR afii10036
ENCODING 1058
SWIDTH 545 0
DWIDTH 6 0
BBX 5 7 0 0
BITMAP
F8
20
20
20
20
20
20
ENDCHAR
STARTCHAR afii10037
ENCODING 1059
SWIDTH 455 0
DWIDTH 5 0
BBX 4 7 0 0
BITMAP
90
90
90
90
70
10
60
ENDCHAR
STARTCHAR afii10038
ENCODING 1060
SWIDTH 455 0
DWIDTH 5 0
BBX 5 9 0 -1
BITMAP
20
70
A8
A8
A8
A8
A8
70
20
ENDCHAR
STARTCHAR afii10039
ENCODING 1061
SWIDTH 545 0
DWIDTH 6 0
BBX 5 7 0 0
BITMAP
88
88
50
20
50
88
88
ENDCHAR
STARTCHAR afii10040
ENCODING 1062
SWIDTH 545 0
DWIDTH 6 0
BBX 5 9 0 -2
BITMAP
90
90
90
90
90
90
F8
08
08
ENDCHAR
STARTCHAR afii10041
ENCODING 1063
SWIDTH 455 0
DWIDTH 5 0
BBX 4 7 0 0
BITMAP
90
90
90
70
10
10
10
ENDCHAR
STARTCHAR afii10042
ENCODING 1064
SWIDTH 727 0
DWIDTH 8 0
BBX 7 7 0 0
BITMAP
92
92
92
92
92
92
FE
ENDCHAR
STARTCHAR afii10043
ENCODING 1065
SWIDTH 800 0
DWIDTH 8 0
BBX 8 9 0 -2
BITMAP
92
92
92
92
92
92
FF
01
01
ENDCHAR
STARTCHAR afii10044
ENCODING 1066
SWIDTH 636 0
DWIDTH 7 0
BBX 6 7 0 0
BITMAP
E0
20
38
24
24
24
38
ENDCHAR
STARTCHAR afii10045
ENCODING 1067
SWIDTH 636 0
DWIDTH 7 0
BBX 6 7 0 0
BITMAP
84
84
E4
94
94
94
E4
ENDCHAR
STARTCHAR afii10046
ENCODING 1068
SWIDTH 455 0
DWIDTH 5 0
BBX 4 7 0 0
BITMAP
80
80
E0
90
90
90
E0
ENDCHAR
STARTCHAR afii10047
ENCODING 1069
SWIDTH 519 0
DWIDTH 5 0
BBX 4 7 0 0
BITMAP
60
90
10
70
10
90
60
ENDCHAR
STARTCHAR afii10048
ENCODING 1070
SWIDTH 636 0
DWIDTH 7 0
BBX 6 7 0 0
BITMAP
98
A4
A4
E4
A4
A4
98
ENDCHAR
STARTCHAR afii10049
ENCODING 1071
SWIDTH 455 0
DWIDTH 5 0
BBX 4 7 0 0
BITMAP
70
90
90
70
90
90
90
ENDCHAR
STARTCHAR afii10065
ENCODING 1072
SWIDTH 455 0
DWIDTH 5 0
BBX 4 6 0 0
BITMAP
60
90
30
50
90
70
ENDCHAR
STARTCHAR afii10066
ENCODING 1073
SWIDTH 455 0
DWIDTH 5 0
BBX 4 7 0 0
BITMAP
30
40
E0
90
90
90
70
ENDCHAR
STARTCHAR afii10067
ENCODING 1074
SWIDTH 519 0
DWIDTH 5 0
BBX 4 6 0 0
BITMAP
E0
90
E0
90
90
E0
ENDCHAR
STARTCHAR afii10068
ENCODING 1075
SWIDTH 364 0
DWIDTH 4 0
BBX 3 6 0 0
BITMAP
E0
80
80
80
80
80
ENDCHAR
STARTCHAR afii10069
ENCODING 1076
SWIDTH 545 0
DWIDTH 6 0
BBX 5 8 0 -2
BITMAP
78
48
48
48
48
F8
88
88
ENDCHAR
STARTCHAR afii10070
ENCODING 1077
SWIDTH 455 0
DWIDTH 5 0
BBX 4 6 0 0
BITMAP
60
90
F0
80
90
60
ENDCHAR
STARTCHAR afii10072
ENCODING 1078
SWIDTH 727 0
DWIDTH 8 0
BBX 7 6 0 0
BITMAP
92
54
38
54
54
92
ENDCHAR
STARTCHAR afii10073
ENCODING 1079
SWIDTH 410 0
DWIDTH 4 0
BBX 4 6 0 0
BITMAP
60
90
20
10
90
60
ENDCHAR
STARTCHAR afii10074
ENCODING 1080
SWIDTH 455 0
DWIDTH 5 0
BBX 4 6 0 0
BITMAP
90
B0
D0
90
90
90
ENDCHAR
STARTCHAR afii10075
ENCODING 1081
SWIDTH 455 0
DWIDTH 5 0
BBX 4 8 0 0
BITMAP
A0
40
90
B0
D0
90
90
90
ENDCHAR
STARTCHAR afii10076
ENCODING 1082
SWIDTH 455 0
DWIDTH 5 0
BBX 4 6 0 0
BITMAP
90
A0
C0
A0
90
90
ENDCHAR
STARTCHAR afii10077
ENCODING 1083
SWIDTH 463 0
DWIDTH 5 0
BBX 4 6 0 0
BITMAP
70
50
50
50
50
90
ENDCHAR
STARTCHAR afii10078
ENCODING 1084
SWIDTH 545 0
DWIDTH 6 0
BBX 5 6 0 0
BITMAP
D8
D8
A8
A8
A8
A8
ENDCHAR
STARTCHAR afii10079
ENCODING 1085
SWIDTH 364 0
DWIDTH 4 0
BBX 3 6 0 0
BITMAP
A0
A0
E0
A0
A0
A0
ENDCHAR
STARTCHAR afii10080
ENCODING 1086
SWIDTH 455 0
DWIDTH 5 0
BBX 4 6 0 0
BITMAP
60
90
90
90
90
60
ENDCHAR
STARTCHAR afii10081
ENCODING 1087
SWIDTH 364 0
DWIDTH 4 0
BBX 3 6 0 0
BITMAP
E0
A0
A0
A0
A0
A0
ENDCHAR
STARTCHAR afii10082
ENCODING 1088
SWIDTH 455 0
DWIDTH 5 0
BBX 4 8 0 -2
BITMAP
E0
90
90
90
90
E0
80
80
ENDCHAR
STARTCHAR afii10083
ENCODING 1089
SWIDTH 455 0
DWIDTH 5 0
BBX 4 6 0 0
BITMAP
60
90
80
80
90
60
ENDCHAR
STARTCHAR afii10084
ENCODING 1090
SWIDTH 545 0
DWIDTH 6 0
BBX 5 6 0 0
BITMAP
F8
20
20
20
20
20
ENDCHAR
STARTCHAR afii10085
ENCODING 1091
SWIDTH 455 0
DWIDTH 5 0
BBX 4 8 0 -2
BITMAP
90
90
90
90
90
70
10
60
ENDCHAR
STARTCHAR afii10086
ENCODING 1092
SWIDTH 667 0
DWIDTH 7 0
BBX 7 8 0 -1
BITMAP
10
54
BA
92
92
BA
54
10
ENDCHAR
STARTCHAR afii10087
ENCODING 1093
SWIDTH 545 0
DWIDTH 6 0
BBX 5 6 0 0
BITMAP
88
50
20
20
50
88
ENDCHAR
STARTCHAR afii10088
ENCODING 1094
SWIDTH 481 0
DWIDTH 5 0
BBX 4 8 1 -2
BITMAP
A0
A0
A0
A0
A0
F0
10
10
ENDCHAR
STARTCHAR afii10089
ENCODING 1095
SWIDTH 455 0
DWIDTH 5 0
BBX 4 6 0 0
BITMAP
90
90
90
70
10
10
ENDCHAR
STARTCHAR afii10090
ENCODING 1096
SWIDTH 545 0
DWIDTH 6 0
BBX 5 6 0 0
BITMAP
A8
A8
A8
A8
A8
F8
ENDCHAR
STARTCHAR afii10091
ENCODING 1097
SWIDTH 727 0
DWIDTH 8 0
BBX 6 8 1 -2
BITMAP
A8
A8
A8
A8
A8
FC
04
04
ENDCHAR
STARTCHAR afii10092
ENCODING 1098
SWIDTH 545 0
DWIDTH 6 0
BBX 5 6 0 0
BITMAP
C0
40
70
48
48
70
ENDCHAR
STARTCHAR afii10093
ENCODING 1099
SWIDTH 545 0
DWIDTH 6 0
BBX 5 6 0 0
BITMAP
88
88
C8
A8
A8
C8
ENDCHAR
STARTCHAR afii10094
ENCODING 1100
SWIDTH 364 0
DWIDTH 4 0
BBX 3 6 0 0
BITMAP
80
80
C0
A0
A0
C0
ENDCHAR
STARTCHAR afii10095
ENCODING 1101
SWIDTH 426 0
DWIDTH 4 0
BBX 4 6 0 0
BITMAP
70
90
30
10
90
70
ENDCHAR
STARTCHAR afii10096
ENCODING 1102
SWIDTH 636 0
DWIDTH 7 0
BBX 6 6 0 0
BITMAP
98
A4
E4
A4
A4
98
ENDCHAR
STARTCHAR afii10097
ENCODING 1103
SWIDTH 444 0
DWIDTH 4 0
BBX 4 6 0 0
BITMAP
70
90
90
70
50
90
ENDCHAR
STARTCHAR notequal
ENCODING 8800
SWIDTH 600 0
DWIDTH 6 0
BBX 5 5 1 1
BITMAP
10
F8
20
F8
40
ENDCHAR
STARTCHAR infinity
ENCODING 8734
SWIDTH 818 0
DWIDTH 9 0
BBX 8 3 0 2
BITMAP
66
99
66
ENDCHAR
STARTCHAR lessequal
ENCODING 8804
SWIDTH 600 0
DWIDTH 6 0
BBX 5 7 0 0
BITMAP
08
30
C0
30
08
00
F8
ENDCHAR
STARTCHAR greaterequal
ENCODING 8805
SWIDTH 600 0
DWIDTH 6 0
BBX 5 7 0 0
BITMAP
80
60
18
60
80
00
F8
ENDCHAR
STARTCHAR partialdiff
ENCODING 8706
SWIDTH 537 0
DWIDTH 5 0
BBX 5 8 0 0
BITMAP
70
08
08
68
98
88
88
70
ENDCHAR
STARTCHAR radical
ENCODING 8730
SWIDTH 500 0
DWIDTH 5 0
BBX 6 11 0 -2
BITMAP
04
08
08
08
08
10
10
90
50
50
20
ENDCHAR
STARTCHAR approxequal
ENCODING 8776
SWIDTH 600 0
DWIDTH 6 0
BBX 6 5 0 1
BITMAP
64
9C
00
64
9C
ENDCHAR
STARTCHAR SF100000
ENCODING 9472
SWIDTH 818 0
DWIDTH 9 0
BBX 7 1 1 2
BITMAP
FE
ENDCHAR
STARTCHAR SF110000
ENCODING 9474
SWIDTH 273 0
DWIDTH 3 0
BBX 1 11 1 -2
BITMAP
80
80
80
80
80
80
80
80
80
80
80
ENDCHAR
STARTCHAR SF010000
ENCODING 9484
SWIDTH 545 0
DWIDTH 6 0
BBX 4 6 1 -2
BITMAP
F0
80
80
80
80
80
ENDCHAR
STARTCHAR SF030000
ENCODING 9488
SWIDTH 545 0
DWIDTH 6 0
BBX 4 6 1 -2
BITMAP
F0
10
10
10
10
10
ENDCHAR
STARTCHAR SF020000
ENCODING 9492
SWIDTH 545 0
DWIDTH 6 0
BBX 4 6 1 2
BITMAP
80
80
80
80
80
F0
ENDCHAR
STARTCHAR SF040000
ENCODING 9496
SWIDTH 545 0
DWIDTH 6 0
BBX 4 6 1 2
BITMAP
10
10
10
10
10
F0
ENDCHAR
STARTCHAR SF080000
ENCODING 9500
SWIDTH 545 0
DWIDTH 6 0
BBX 4 11 1 -2
BITMAP
80
80
80
80
80
F0
80
80
80
80
80
ENDCHAR
STARTCHAR SF090000
ENCODING 9508
SWIDTH 545 0
DWIDTH 6 0
BBX 4 11 1 -2
BITMAP
10
10
10
10
10
F0
10
10
10
10
10
ENDCHAR
STARTCHAR SF060000
ENCODING 9516
SWIDTH 818 0
DWIDTH 9 0
BBX 7 6 1 -2
BITMAP
FE
10
10
10
10
10
ENDCHAR
STARTCHAR SF070000
ENCODING 9524
SWIDTH 818 0
DWIDTH 9 0
BBX 7 6 1 2
BITMAP
10
10
10
10
10
FE
ENDCHAR
STARTCHAR SF050000
ENCODING 9532
SWIDTH 818 0
DWIDTH 9 0
BBX 7 11 1 -2
BITMAP
10
10
10
10
10
FE
10
10
10
10
10
ENDCHAR
STARTCHAR upblock
ENCODING 9600
SWIDTH 727 0
DWIDTH 8 0
BBX 6 5 1 3
BITMAP
FC
FC
FC
FC
FC
ENDCHAR
STARTCHAR dnblock
ENCODING 9604
SWIDTH 818 0
DWIDTH 9 0
BBX 7 6 1 -2
BITMAP
FE
FE
FE
FE
FE
FE
ENDCHAR
STARTCHAR block
ENCODING 9608
SWIDTH 818 0
DWIDTH 9 0
BBX 7 11 1 -2
BITMAP
FE
FE
FE
FE
FE
FE
FE
FE
FE
FE
FE
ENDCHAR
STARTCHAR lfblock
ENCODING 9612
SWIDTH 455 0
DWIDTH 5 0
BBX 3 11 1 -2
BITMAP
E0
E0
E0
E0
E0
E0
E0
E0
E0
E0
E0
ENDCHAR
STARTCHAR rtblock
ENCODING 9616
SWIDTH 545 0
DWIDTH 6 0
BBX 4 11 1 -2
BITMAP
F0
F0
F0
F0
F0
F0
F0
F0
F0
F0
F0
ENDCHAR
STARTCHAR ltshade
ENCODING 9617
SWIDTH 727 0
DWIDTH 8 0
BBX 6 11 1 -2
BITMAP
90
24
90
24
90
24
90
24
90
24
90
ENDCHAR
STARTCHAR shade
ENCODING 9618
SWIDTH 727 0
DWIDTH 8 0
BBX 6 11 1 -2
BITMAP
A8
54
A8
54
A8
54
A8
54
A8
54
A8
ENDCHAR
STARTCHAR dkshade
ENCODING 9619
SWIDTH 727 0
DWIDTH 8 0
BBX 6 11 1 -2
BITMAP
54
FC
A8
FC
54
FC
A8
FC
54
FC
A8
ENDCHAR
STARTCHAR integraltp
ENCODING 8992
SWIDTH 732 0
DWIDTH 8 0
BBX 5 11 3 -2
BITMAP
78
C8
C0
C0
C0
C0
C0
C0
C0
C0
C0
ENDCHAR
STARTCHAR filledbox
ENCODING 9632
SWIDTH 834 0
DWIDTH 9 0
BBX 7 8 1 0
BITMAP
FE
FE
FE
FE
FE
FE
FE
FE
ENDCHAR
STARTCHAR integralbt
ENCODING 8993
SWIDTH 545 0
DWIDTH 6 0
BBX 5 11 0 -2
BITMAP
18
18
18
18
18
18
18
18
18
98
F0
ENDCHAR
STARTCHAR SF430000
ENCODING 9552
SWIDTH 818 0
DWIDTH 9 0
BBX 7 3 1 1
BITMAP
FE
00
FE
ENDCHAR
STARTCHAR SF240000
ENCODING 9553
SWIDTH 455 0
DWIDTH 5 0
BBX 3 11 1 -2
BITMAP
A0
A0
A0
A0
A0
A0
A0
A0
A0
A0
A0
ENDCHAR
STARTCHAR SF510000
ENCODING 9554
SWIDTH 545 0
DWIDTH 6 0
BBX 4 7 1 -2
BITMAP
F0
80
F0
80
80
80
80
ENDCHAR
STARTCHAR SF520000
ENCODING 9555
SWIDTH 727 0
DWIDTH 8 0
BBX 6 6 1 -2
BITMAP
FC
A0
A0
A0
A0
A0
ENDCHAR
STARTCHAR SF390000
ENCODING 9556
SWIDTH 727 0
DWIDTH 8 0
BBX 6 7 1 -2
BITMAP
FC
80
BC
A0
A0
A0
A0
ENDCHAR
STARTCHAR SF220000
ENCODING 9557
SWIDTH 545 0
DWIDTH 6 0
BBX 4 7 1 -2
BITMAP
F0
10
F0
10
10
10
10
ENDCHAR
STARTCHAR SF210000
ENCODING 9558
SWIDTH 545 0
DWIDTH 6 0
BBX 4 6 1 -2
BITMAP
F0
50
50
50
50
50
ENDCHAR
STARTCHAR SF250000
ENCODING 9559
SWIDTH 636 0
DWIDTH 7 0
BBX 5 7 1 -2
BITMAP
F8
08
E8
28
28
28
28
ENDCHAR
STARTCHAR SF500000
ENCODING 9560
SWIDTH 545 0
DWIDTH 6 0
BBX 4 7 1 1
BITMAP
80
80
80
80
F0
80
F0
ENDCHAR
STARTCHAR SF490000
ENCODING 9561
SWIDTH 636 0
DWIDTH 7 0
BBX 5 6 1 2
BITMAP
A0
A0
A0
A0
A0
F8
ENDCHAR
STARTCHAR SF380000
ENCODING 9562
SWIDTH 636 0
DWIDTH 7 0
BBX 5 7 1 1
BITMAP
A0
A0
A0
A0
B8
80
F8
ENDCHAR
STARTCHAR SF280000
ENCODING 9563
SWIDTH 545 0
DWIDTH 6 0
BBX 4 7 1 1
BITMAP
10
10
10
10
F0
10
F0
ENDCHAR
STARTCHAR SF270000
ENCODING 9564
SWIDTH 636 0
DWIDTH 7 0
BBX 5 6 1 2
BITMAP
28
28
28
28
28
F8
ENDCHAR
STARTCHAR SF260000
ENCODING 9565
SWIDTH 636 0
DWIDTH 7 0
BBX 5 7 1 1
BITMAP
28
28
28
28
E8
08
F8
ENDCHAR
STARTCHAR SF360000
ENCODING 9566
SWIDTH 545 0
DWIDTH 6 0
BBX 4 11 1 -2
BITMAP
80
80
80
80
F0
80
F0
80
80
80
80
ENDCHAR
STARTCHAR SF370000
ENCODING 9567
SWIDTH 636 0
DWIDTH 7 0
BBX 5 11 1 -2
BITMAP
A0
A0
A0
A0
A0
B8
A0
A0
A0
A0
A0
ENDCHAR
STARTCHAR SF420000
ENCODING 9568
SWIDTH 636 0
DWIDTH 7 0
BBX 5 11 1 -2
BITMAP
A0
A0
A0
A0
B8
80
B8
A0
A0
A0
A0
ENDCHAR
STARTCHAR SF190000
ENCODING 9569
SWIDTH 545 0
DWIDTH 6 0
BBX 4 11 1 -2
BITMAP
10
10
10
10
F0
10
F0
10
10
10
10
ENDCHAR
STARTCHAR SF200000
ENCODING 9570
SWIDTH 636 0
DWIDTH 7 0
BBX 5 11 1 -2
BITMAP
28
28
28
28
28
E8
28
28
28
28
28
ENDCHAR
STARTCHAR SF230000
ENCODING 9571
SWIDTH 636 0
DWIDTH 7 0
BBX 5 11 1 -2
BITMAP
28
28
28
28
E8
08
E8
28
28
28
28
ENDCHAR
STARTCHAR SF470000
ENCODING 9572
SWIDTH 818 0
DWIDTH 9 0
BBX 7 7 1 -2
BITMAP
FE
00
FE
10
10
10
10
ENDCHAR
STARTCHAR SF480000
ENCODING 9573
SWIDTH 818 0
DWIDTH 9 0
BBX 7 5 1 -2
BITMAP
FE
50
50
50
50
ENDCHAR
STARTCHAR SF410000
ENCODING 9574
SWIDTH 909 0
DWIDTH 10 0
BBX 8 6 1 -1
BITMAP
FF
00
EF
28
28
28
ENDCHAR
STARTCHAR SF450000
ENCODING 9575
SWIDTH 818 0
DWIDTH 9 0
BBX 7 7 1 1
BITMAP
20
20
20
20
FE
00
FE
ENDCHAR
STARTCHAR SF460000
ENCODING 9576
SWIDTH 909 0
DWIDTH 10 0
BBX 8 6 1 2
BITMAP
28
28
28
28
28
FF
ENDCHAR
STARTCHAR SF400000
ENCODING 9577
SWIDTH 909 0
DWIDTH 10 0
BBX 8 7 1 1
BITMAP
28
28
28
28
EF
00
FF
ENDCHAR
STARTCHAR SF540000
ENCODING 9578
SWIDTH 818 0
DWIDTH 9 0
BBX 7 11 1 -2
BITMAP
10
10
10
10
FE
10
FE
10
10
10
10
ENDCHAR
STARTCHAR SF530000
ENCODING 9579
SWIDTH 909 0
DWIDTH 10 0
BBX 8 11 1 -2
BITMAP
28
28
28
28
28
FF
28
28
28
28
28
ENDCHAR
STARTCHAR SF440000
ENCODING 9580
SWIDTH 818 0
DWIDTH 9 0
BBX 7 11 1 -2
BITMAP
28
28
28
28
EE
00
EE
28
28
28
28
ENDCHAR
STARTCHAR Gbreve
ENCODING 286
SWIDTH 537 0
DWIDTH 5 0
BBX 4 9 0 0
BITMAP
90
60
60
90
80
B0
90
90
60
ENDCHAR
STARTCHAR Idotaccent
ENCODING 304
SWIDTH 204 0
DWIDTH 2 0
BBX 1 9 0 0
BITMAP
80
00
80
80
80
80
80
80
80
ENDCHAR
STARTCHAR Scedilla
ENCODING 350
SWIDTH 545 0
DWIDTH 6 0
BBX 5 9 0 -2
BITMAP
70
88
80
70
08
88
70
20
60
ENDCHAR
STARTCHAR gbreve
ENCODING 287
SWIDTH 463 0
DWIDTH 5 0
BBX 4 11 0 -2
BITMAP
90
60
00
60
90
90
90
90
70
10
60
ENDCHAR
STARTCHAR scedilla
ENCODING 351
SWIDTH 455 0
DWIDTH 5 0
BBX 4 8 0 -2
BITMAP
70
80
E0
10
10
E0
20
60
ENDCHAR
STARTCHAR Aogonek
ENCODING 260
SWIDTH 500 0
DWIDTH 5 0
BBX 5 9 0 -2
BITMAP
60
90
90
90
F0
90
90
10
18
ENDCHAR
STARTCHAR Sacute
ENCODING 346
SWIDTH 545 0
DWIDTH 6 0
BBX 5 9 0 0
BITMAP
10
20
70
88
80
70
08
88
70
ENDCHAR
STARTCHAR Tcaron
ENCODING 356
SWIDTH 545 0
DWIDTH 6 0
BBX 5 9 0 0
BITMAP
50
20
F8
20
20
20
20
20
20
ENDCHAR
STARTCHAR Zacute
ENCODING 377
SWIDTH 545 0
DWIDTH 6 0
BBX 5 9 0 0
BITMAP
10
20
F8
08
10
20
40
80
F8
ENDCHAR
STARTCHAR sacute
ENCODING 347
SWIDTH 455 0
DWIDTH 5 0
BBX 4 9 0 0
BITMAP
20
40
00
70
80
E0
10
10
E0
ENDCHAR
STARTCHAR tcaron
ENCODING 357
SWIDTH 364 0
DWIDTH 4 0
BBX 3 9 0 0
BITMAP
A0
40
40
40
E0
40
40
40
40
ENDCHAR
STARTCHAR zacute
ENCODING 378
SWIDTH 455 0
DWIDTH 5 0
BBX 4 9 0 0
BITMAP
20
40
00
F0
10
20
40
80
F0
ENDCHAR
STARTCHAR Zdotaccent
ENCODING 379
SWIDTH 545 0
DWIDTH 6 0
BBX 5 9 0 0
BITMAP
20
00
F8
08
10
20
40
80
F8
ENDCHAR
STARTCHAR aogonek
ENCODING 261
SWIDTH 545 0
DWIDTH 6 0
BBX 5 8 0 -2
BITMAP
E0
10
70
90
90
70
10
18
ENDCHAR
STARTCHAR Lcaron
ENCODING 317
SWIDTH 455 0
DWIDTH 5 0
BBX 4 7 0 0
BITMAP
A0
A0
80
80
80
80
F0
ENDCHAR
STARTCHAR lcaron
ENCODING 318
SWIDTH 364 0
DWIDTH 4 0
BBX 3 7 0 0
BITMAP
A0
A0
80
80
80
80
C0
ENDCHAR
STARTCHAR zdotaccent
ENCODING 380
SWIDTH 455 0
DWIDTH 5 0
BBX 4 8 0 0
BITMAP
40
00
F0
10
20
40
80
F0
ENDCHAR
STARTCHAR Racute
ENCODING 340
SWIDTH 455 0
DWIDTH 5 0
BBX 4 9 0 0
BITMAP
20
40
E0
90
90
E0
90
90
90
ENDCHAR
STARTCHAR Abreve
ENCODING 258
SWIDTH 500 0
DWIDTH 5 0
BBX 4 9 0 0
BITMAP
90
60
60
90
90
90
F0
90
90
ENDCHAR
STARTCHAR Lacute
ENCODING 313
SWIDTH 545 0
DWIDTH 6 0
BBX 5 9 0 0
BITMAP
40
80
40
40
40
40
40
40
78
ENDCHAR
STARTCHAR Cacute
ENCODING 262
SWIDTH 519 0
DWIDTH 5 0
BBX 4 9 0 0
BITMAP
20
40
60
90
80
80
80
90
60
ENDCHAR
STARTCHAR Ccaron
ENCODING 268
SWIDTH 519 0
DWIDTH 5 0
BBX 4 9 0 0
BITMAP
A0
40
60
90
80
80
80
90
60
ENDCHAR
STARTCHAR Eogonek
ENCODING 280
SWIDTH 463 0
DWIDTH 5 0
BBX 4 9 0 -2
BITMAP
F0
80
80
F0
80
80
F0
20
30
ENDCHAR
STARTCHAR Ecaron
ENCODING 282
SWIDTH 463 0
DWIDTH 5 0
BBX 4 9 0 0
BITMAP
A0
40
F0
80
80
F0
80
80
F0
ENDCHAR
STARTCHAR Dcaron
ENCODING 270
SWIDTH 455 0
DWIDTH 5 0
BBX 4 9 0 0
BITMAP
A0
40
E0
90
90
90
90
90
E0
ENDCHAR
STARTCHAR Dcroat
ENCODING 272
SWIDTH 455 0
DWIDTH 5 0
BBX 5 7 -1 0
BITMAP
70
48
48
E8
48
48
70
ENDCHAR
STARTCHAR Nacute
ENCODING 323
SWIDTH 455 0
DWIDTH 5 0
BBX 4 9 0 0
BITMAP
20
40
90
D0
B0
90
90
90
90
ENDCHAR
STARTCHAR Ncaron
ENCODING 327
SWIDTH 455 0
DWIDTH 5 0
BBX 4 9 0 0
BITMAP
A0
40
90
D0
B0
90
90
90
90
ENDCHAR
STARTCHAR Ohungarumlaut
ENCODING 336
SWIDTH 455 0
DWIDTH 5 0
BBX 4 9 0 0
BITMAP
90
00
60
90
90
90
90
90
60
ENDCHAR
STARTCHAR Rcaron
ENCODING 344
SWIDTH 455 0
DWIDTH 5 0
BBX 4 9 0 0
BITMAP
A0
40
E0
90
90
E0
90
90
90
ENDCHAR
STARTCHAR Uring
ENCODING 366
SWIDTH 455 0
DWIDTH 5 0
BBX 4 7 0 0
BITMAP
90
90
90
90
90
90
F0
ENDCHAR
STARTCHAR Uhungarumlaut
ENCODING 368
SWIDTH 455 0
DWIDTH 5 0
BBX 4 9 0 0
BITMAP
90
00
90
90
90
90
90
90
F0
ENDCHAR
STARTCHAR Tcommaaccent
ENCODING 354
SWIDTH 545 0
DWIDTH 6 0
BBX 5 9 0 -2
BITMAP
F8
20
20
20
20
20
20
10
20
ENDCHAR
STARTCHAR racute
ENCODING 341
SWIDTH 273 0
DWIDTH 3 0
BBX 2 9 0 0
BITMAP
40
80
00
C0
80
80
80
80
80
ENDCHAR
STARTCHAR abreve
ENCODING 259
SWIDTH 455 0
DWIDTH 5 0
BBX 4 9 0 0
BITMAP
90
60
00
E0
10
70
90
90
70
ENDCHAR
STARTCHAR lacute
ENCODING 314
SWIDTH 273 0
DWIDTH 3 0
BBX 3 9 -1 0
BITMAP
40
80
40
40
40
40
40
40
60
ENDCHAR
STARTCHAR cacute
ENCODING 263
SWIDTH 426 0
DWIDTH 4 0
BBX 4 9 0 0
BITMAP
20
40
00
60
90
80
80
90
60
ENDCHAR
STARTCHAR ccaron
ENCODING 269
SWIDTH 426 0
DWIDTH 4 0
BBX 4 9 0 0
BITMAP
A0
40
00
60
90
80
80
90
60
ENDCHAR
STARTCHAR eogonek
ENCODING 281
SWIDTH 455 0
DWIDTH 5 0
BBX 4 8 0 -2
BITMAP
60
90
F0
80
90
60
40
60
ENDCHAR
STARTCHAR ecaron
ENCODING 283
SWIDTH 455 0
DWIDTH 5 0
BBX 4 9 0 0
BITMAP
A0
40
00
60
90
F0
80
90
60
ENDCHAR
STARTCHAR dcaron
ENCODING 271
SWIDTH 636 0
DWIDTH 7 0
BBX 6 8 0 0
BITMAP
04
14
70
90
90
90
90
70
ENDCHAR
STARTCHAR dcroat
ENCODING 273
SWIDTH 545 0
DWIDTH 6 0
BBX 5 8 0 0
BITMAP
10
38
10
70
90
90
90
60
ENDCHAR
STARTCHAR nacute
ENCODING 324
SWIDTH 455 0
DWIDTH 5 0
BBX 4 9 0 0
BITMAP
20
40
00
E0
90
90
90
90
90
ENDCHAR
STARTCHAR ncaron
ENCODING 328
SWIDTH 455 0
DWIDTH 5 0
BBX 4 9 0 0
BITMAP
A0
40
00
E0
90
90
90
90
90
ENDCHAR
STARTCHAR ohungarumlaut
ENCODING 337
SWIDTH 455 0
DWIDTH 5 0
BBX 4 8 0 0
BITMAP
90
00
60
90
90
90
90
60
ENDCHAR
STARTCHAR rcaron
ENCODING 345
SWIDTH 364 0
DWIDTH 4 0
BBX 3 9 0 0
BITMAP
A0
40
00
C0
80
80
80
80
80
ENDCHAR
STARTCHAR uring
ENCODING 367
SWIDTH 455 0
DWIDTH 5 0
BBX 4 9 0 0
BITMAP
40
A0
40
90
90
90
90
90
60
ENDCHAR
STARTCHAR uhungarumlaut
ENCODING 369
SWIDTH 455 0
DWIDTH 5 0
BBX 4 8 0 0
BITMAP
90
00
90
90
90
90
90
60
ENDCHAR
STARTCHAR tcommaaccent
ENCODING 355
SWIDTH 364 0
DWIDTH 4 0
BBX 3 9 0 -2
BITMAP
40
40
E0
40
40
40
40
20
40
ENDCHAR
STARTCHAR Iogonek
ENCODING 302
SWIDTH 204 0
DWIDTH 2 0
BBX 2 9 0 -2
BITMAP
80
80
80
80
80
80
80
80
C0
ENDCHAR
STARTCHAR Amacron
ENCODING 256
SWIDTH 500 0
DWIDTH 5 0
BBX 4 9 0 0
BITMAP
F0
00
60
90
90
90
F0
90
90
ENDCHAR
STARTCHAR iogonek
ENCODING 303
SWIDTH 182 0
DWIDTH 2 0
BBX 2 9 0 -2
BITMAP
80
00
80
80
80
80
80
80
C0
ENDCHAR
STARTCHAR amacron
ENCODING 257
SWIDTH 455 0
DWIDTH 5 0
BBX 4 8 0 0
BITMAP
F0
00
E0
10
70
90
90
70
ENDCHAR
STARTCHAR Emacron
ENCODING 274
SWIDTH 463 0
DWIDTH 5 0
BBX 4 9 0 0
BITMAP
F0
00
F0
80
80
F0
80
80
F0
ENDCHAR
STARTCHAR emacron
ENCODING 275
SWIDTH 455 0
DWIDTH 5 0
BBX 4 8 0 0
BITMAP
F0
00
60
90
F0
80
90
60
ENDCHAR
STARTCHAR Edotaccent
ENCODING 278
SWIDTH 463 0
DWIDTH 5 0
BBX 4 9 0 0
BITMAP
40
00
F0
80
80
F0
80
80
F0
ENDCHAR
STARTCHAR Gcommaaccent
ENCODING 290
SWIDTH 537 0
DWIDTH 5 0
BBX 4 9 0 -2
BITMAP
60
90
80
B0
90
90
60
20
40
ENDCHAR
STARTCHAR Kcommaaccent
ENCODING 310
SWIDTH 500 0
DWIDTH 5 0
BBX 4 9 0 -2
BITMAP
90
90
A0
C0
A0
90
90
40
80
ENDCHAR
STARTCHAR Imacron
ENCODING 298
SWIDTH 455 0
DWIDTH 5 0
BBX 4 9 0 0
BITMAP
F0
00
40
40
40
40
40
40
40
ENDCHAR
STARTCHAR Lcommaaccent
ENCODING 315
SWIDTH 455 0
DWIDTH 5 0
BBX 4 9 0 -2
BITMAP
80
80
80
80
80
80
F0
20
40
ENDCHAR
STARTCHAR edotaccent
ENCODING 279
SWIDTH 455 0
DWIDTH 5 0
BBX 4 8 0 0
BITMAP
40
00
60
90
F0
80
90
60
ENDCHAR
STARTCHAR gcommaaccent
ENCODING 291
SWIDTH 463 0
DWIDTH 5 0
BBX 4 11 0 -2
BITMAP
20
40
00
60
90
90
90
90
70
10
60
ENDCHAR
STARTCHAR kcommaaccent
ENCODING 311
SWIDTH 455 0
DWIDTH 5 0
BBX 4 9 0 -2
BITMAP
80
90
A0
C0
A0
90
90
40
80
ENDCHAR
STARTCHAR imacron
ENCODING 299
SWIDTH 455 0
DWIDTH 5 0
BBX 4 8 0 0
BITMAP
F0
00
00
40
40
40
40
40
ENDCHAR
STARTCHAR lcommaaccent
ENCODING 316
SWIDTH 273 0
DWIDTH 3 0
BBX 2 9 0 -2
BITMAP
80
80
80
80
80
80
C0
40
80
ENDCHAR
STARTCHAR Ncommaaccent
ENCODING 325
SWIDTH 455 0
DWIDTH 5 0
BBX 4 9 0 -2
BITMAP
90
D0
B0
90
90
90
90
40
80
ENDCHAR
STARTCHAR Omacron
ENCODING 332
SWIDTH 455 0
DWIDTH 5 0
BBX 4 9 0 0
BITMAP
F0
00
60
90
90
90
90
90
60
ENDCHAR
STARTCHAR Uogonek
ENCODING 370
SWIDTH 455 0
DWIDTH 5 0
BBX 4 9 0 -2
BITMAP
90
90
90
90
90
90
F0
40
60
ENDCHAR
STARTCHAR Umacron
ENCODING 362
SWIDTH 455 0
DWIDTH 5 0
BBX 4 9 0 0
BITMAP
F0
00
90
90
90
90
90
90
F0
ENDCHAR
STARTCHAR ncommaaccent
ENCODING 326
SWIDTH 455 0
DWIDTH 5 0
BBX 4 8 0 -2
BITMAP
E0
90
90
90
90
90
40
80
ENDCHAR
STARTCHAR omacron
ENCODING 333
SWIDTH 455 0
DWIDTH 5 0
BBX 4 8 0 0
BITMAP
F0
00
60
90
90
90
90
60
ENDCHAR
STARTCHAR uogonek
ENCODING 371
SWIDTH 455 0
DWIDTH 5 0
BBX 4 8 0 -2
BITMAP
90
90
90
90
90
60
40
60
ENDCHAR
STARTCHAR umacron
ENCODING 363
SWIDTH 455 0
DWIDTH 5 0
BBX 4 8 0 0
BITMAP
F0
00
90
90
90
90
90
60
ENDCHAR
STARTCHAR Rcommaaccent
ENCODING 342
SWIDTH 455 0
DWIDTH 5 0
BBX 4 9 0 -2
BITMAP
E0
90
90
E0
90
90
90
40
80
ENDCHAR
STARTCHAR rcommaaccent
ENCODING 343
SWIDTH 273 0
DWIDTH 3 0
BBX 2 8 0 -2
BITMAP
C0
80
80
80
80
80
40
80
ENDCHAR
STARTCHAR Ccircumflex
ENCODING 264
SWIDTH 519 0
DWIDTH 5 0
BBX 4 9 0 0
BITMAP
40
A0
60
90
80
80
80
90
60
ENDCHAR
STARTCHAR ccircumflex
ENCODING 265
SWIDTH 426 0
DWIDTH 4 0
BBX 4 9 0 0
BITMAP
40
A0
00
60
90
80
80
90
60
ENDCHAR
STARTCHAR Cdotaccent
ENCODING 266
SWIDTH 519 0
DWIDTH 5 0
BBX 4 9 0 0
BITMAP
40
00
60
90
80
80
80
90
60
ENDCHAR
STARTCHAR cdotaccent
ENCODING 267
SWIDTH 426 0
DWIDTH 4 0
BBX 4 8 0 0
BITMAP
40
00
60
90
80
80
90
60
ENDCHAR
STARTCHAR Ebreve
ENCODING 276
SWIDTH 463 0
DWIDTH 5 0
BBX 4 9 0 0
BITMAP
90
60
F0
80
80
F0
80
80
F0
ENDCHAR
STARTCHAR ebreve
ENCODING 277
SWIDTH 455 0
DWIDTH 5 0
BBX 4 9 0 0
BITMAP
90
60
00
60
90
F0
80
90
60
ENDCHAR
STARTCHAR Gcircumflex
ENCODING 284
SWIDTH 537 0
DWIDTH 5 0
BBX 4 9 0 0
BITMAP
40
A0
60
90
80
B0
90
90
60
ENDCHAR
STARTCHAR gcircumflex
ENCODING 285
SWIDTH 463 0
DWIDTH 5 0
BBX 4 11 0 -2
BITMAP
40
A0
00
60
90
90
90
90
70
10
60
ENDCHAR
STARTCHAR Gdotaccent
ENCODING 288
SWIDTH 537 0
DWIDTH 5 0
BBX 4 9 0 0
BITMAP
40
00
60
90
80
B0
90
90
60
ENDCHAR
STARTCHAR gdotaccent
ENCODING 289
SWIDTH 463 0
DWIDTH 5 0
BBX 4 10 0 -2
BITMAP
40
00
60
90
90
90
90
70
10
60
ENDCHAR
STARTCHAR Hcircumflex
ENCODING 292
SWIDTH 545 0
DWIDTH 6 0
BBX 5 9 0 0
BITMAP
20
50
00
88
88
F8
88
88
88
ENDCHAR
STARTCHAR hcircumflex
ENCODING 293
SWIDTH 545 0
DWIDTH 6 0
BBX 5 9 0 0
BITMAP
40
A0
00
40
70
48
48
48
48
ENDCHAR
STARTCHAR Hbar
ENCODING 294
SWIDTH 537 0
DWIDTH 5 0
BBX 4 7 0 0
BITMAP
90
F0
90
F0
90
90
90
ENDCHAR
STARTCHAR hbar
ENCODING 295
SWIDTH 545 0
DWIDTH 6 0
BBX 5 8 0 0
BITMAP
40
E0
40
70
48
48
48
48
ENDCHAR
STARTCHAR Itilde
ENCODING 296
SWIDTH 455 0
DWIDTH 5 0
BBX 4 9 0 0
BITMAP
50
A0
40
40
40
40
40
40
40
ENDCHAR
STARTCHAR itilde
ENCODING 297
SWIDTH 455 0
DWIDTH 5 0
BBX 4 8 0 0
BITMAP
50
A0
00
40
40
40
40
40
ENDCHAR
STARTCHAR IJ
ENCODING 306
SWIDTH 636 0
DWIDTH 7 0
BBX 6 7 0 0
BITMAP
84
84
84
84
84
A4
9C
ENDCHAR
STARTCHAR ij
ENCODING 307
SWIDTH 364 0
DWIDTH 4 0
BBX 3 9 0 -2
BITMAP
A0
00
A0
A0
A0
A0
A0
20
60
ENDCHAR
STARTCHAR Jcircumflex
ENCODING 308
SWIDTH 455 0
DWIDTH 5 0
BBX 5 9 0 0
BITMAP
10
28
10
10
10
10
10
90
60
ENDCHAR
STARTCHAR jcircumflex
ENCODING 309
SWIDTH 273 0
DWIDTH 3 0
BBX 3 10 0 -2
BITMAP
40
A0
00
40
40
40
40
40
40
80
ENDCHAR
STARTCHAR Ldot
ENCODING 319
SWIDTH 455 0
DWIDTH 5 0
BBX 4 7 0 0
BITMAP
80
80
80
A0
80
80
F0
ENDCHAR
STARTCHAR ldot
ENCODING 320
SWIDTH 364 0
DWIDTH 4 0
BBX 3 7 0 0
BITMAP
80
80
80
A0
80
80
C0
ENDCHAR
STARTCHAR napostrophe
ENCODING 329
SWIDTH 545 0
DWIDTH 6 0
BBX 5 9 0 0
BITMAP
80
80
00
70
48
48
48
48
48
ENDCHAR
STARTCHAR Obreve
ENCODING 334
SWIDTH 455 0
DWIDTH 5 0
BBX 4 9 0 0
BITMAP
90
60
60
90
90
90
90
90
60
ENDCHAR
STARTCHAR obreve
ENCODING 335
SWIDTH 455 0
DWIDTH 5 0
BBX 4 9 0 0
BITMAP
90
60
00
60
90
90
90
90
60
ENDCHAR
STARTCHAR Scircumflex
ENCODING 348
SWIDTH 545 0
DWIDTH 6 0
BBX 5 9 0 0
BITMAP
20
50
70
88
80
70
08
88
70
ENDCHAR
STARTCHAR scircumflex
ENCODING 349
SWIDTH 455 0
DWIDTH 5 0
BBX 4 9 0 0
BITMAP
20
50
00
70
80
E0
10
10
E0
ENDCHAR
STARTCHAR Tbar
ENCODING 358
SWIDTH 545 0
DWIDTH 6 0
BBX 5 7 0 0
BITMAP
F8
20
20
70
20
20
20
ENDCHAR
STARTCHAR tbar
ENCODING 359
SWIDTH 364 0
DWIDTH 4 0
BBX 3 7 0 0
BITMAP
40
40
E0
40
E0
40
40
ENDCHAR
STARTCHAR Utilde
ENCODING 360
SWIDTH 455 0
DWIDTH 5 0
BBX 4 9 0 0
BITMAP
50
A0
90
90
90
90
90
90
F0
ENDCHAR
STARTCHAR utilde
ENCODING 361
SWIDTH 455 0
DWIDTH 5 0
BBX 4 9 0 0
BITMAP
50
A0
00
90
90
90
90
90
60
ENDCHAR
STARTCHAR Ubreve
ENCODING 364
SWIDTH 455 0
DWIDTH 5 0
BBX 4 9 0 0
BITMAP
90
60
90
90
90
90
90
90
F0
ENDCHAR
STARTCHAR ubreve
ENCODING 365
SWIDTH 455 0
DWIDTH 5 0
BBX 4 9 0 0
BITMAP
90
60
00
90
90
90
90
90
60
ENDCHAR
STARTCHAR Wcircumflex
ENCODING 372
SWIDTH 727 0
DWIDTH 8 0
BBX 7 9 0 0
BITMAP
10
28
92
92
92
92
92
6C
44
ENDCHAR
STARTCHAR wcircumflex
ENCODING 373
SWIDTH 545 0
DWIDTH 6 0
BBX 5 9 0 0
BITMAP
20
50
00
A8
A8
A8
A8
A8
50
ENDCHAR
STARTCHAR Ycircumflex
ENCODING 374
SWIDTH 545 0
DWIDTH 6 0
BBX 5 9 0 0
BITMAP
20
50
88
88
50
20
20
20
20
ENDCHAR
STARTCHAR ycircumflex
ENCODING 375
SWIDTH 455 0
DWIDTH 5 0
BBX 4 11 0 -2
BITMAP
20
50
00
90
90
90
90
90
70
10
60
ENDCHAR
STARTCHAR Scommaaccent
ENCODING 536
SWIDTH 545 0
DWIDTH 6 0
BBX 5 9 0 -2
BITMAP
70
88
80
70
08
88
70
20
40
ENDCHAR
STARTCHAR scommaaccent
ENCODING 537
SWIDTH 455 0
DWIDTH 5 0
BBX 4 8 0 -2
BITMAP
70
80
E0
10
10
E0
20
40
ENDCHAR
STARTCHAR uni021A
ENCODING 538
SWIDTH 545 0
DWIDTH 6 0
BBX 5 9 0 -2
BITMAP
F8
20
20
20
20
20
20
10
20
ENDCHAR
STARTCHAR uni021B
ENCODING 539
SWIDTH 364 0
DWIDTH 4 0
BBX 3 9 0 -2
BITMAP
40
40
E0
40
40
40
40
20
40
ENDCHAR
STARTCHAR afii61289
ENCODING 8467
SWIDTH 545 0
DWIDTH 6 0
BBX 5 9 0 -1
BITMAP
30
50
50
50
60
40
C0
48
30
ENDCHAR
STARTCHAR estimated
ENCODING 8494
SWIDTH 545 0
DWIDTH 6 0
BBX 5 7 0 -1
BITMAP
70
C8
C8
F0
C0
C8
70
ENDCHAR
STARTCHAR product
ENCODING 8719
SWIDTH 719 0
DWIDTH 7 0
BBX 6 11 1 -2
BITMAP
FC
84
84
84
84
84
84
84
84
84
84
ENDCHAR
STARTCHAR summation
ENCODING 8721
SWIDTH 615 0
DWIDTH 6 0
BBX 6 11 0 -2
BITMAP
FC
C0
60
30
18
08
18
30
60
C0
FC
ENDCHAR
STARTCHAR minus
ENCODING 8722
SWIDTH 600 0
DWIDTH 6 0
BBX 5 1 1 2
BITMAP
F8
ENDCHAR
STARTCHAR integral
ENCODING 8747
SWIDTH 455 0
DWIDTH 5 0
BBX 4 11 0 -2
BITMAP
30
40
40
40
40
40
40
40
40
40
C0
ENDCHAR
STARTCHAR lozenge
ENCODING 9674
SWIDTH 636 0
DWIDTH 7 0
BBX 6 7 0 0
BITMAP
30
48
48
84
48
48
30
ENDCHAR
STARTCHAR uniF8FF
ENCODING 63743
SWIDTH 727 0
DWIDTH 8 0
BBX 7 8 0 0
BITMAP
FE
82
BA
8A
9A
82
92
FE
ENDCHAR
STARTCHAR Euro
ENCODING 8364
SWIDTH 545 0
DWIDTH 6 0
BBX 5 7 0 0
BITMAP
38
40
F0
40
F0
40
38
ENDCHAR
STARTCHAR Delta
ENCODING 8710
SWIDTH 501 0
DWIDTH 5 0
BBX 5 7 0 0
BITMAP
20
50
50
50
88
88
F8
ENDCHAR
ENDFONT
